<?xml version="1.0" encoding="UTF-8" standalone="no"?>
<svg
   xmlns:dc="http://purl.org/dc/elements/1.1/"
   xmlns:cc="http://creativecommons.org/ns#"
   xmlns:rdf="http://www.w3.org/1999/02/22-rdf-syntax-ns#"
   xmlns:svg="http://www.w3.org/2000/svg"
   xmlns="http://www.w3.org/2000/svg"
   xmlns:sodipodi="http://sodipodi.sourceforge.net/DTD/sodipodi-0.dtd"
   xmlns:inkscape="http://www.inkscape.org/namespaces/inkscape"
   inkscape:export-ydpi="110"
   inkscape:export-xdpi="110"
   inkscape:export-filename="D:\MathworksOnedrive\OneDrive - MathWorks\Projects\2020-07-01-CM-Math\Content\LinearAlgebra\SupportingFiles\EigenAnalysis\stringVibrations.png"
   inkscape:version="1.0 (4035a4fb49, 2020-05-01)"
   sodipodi:docname="stringVibrations.svg"
   id="svg39"
   version="1.1"
   height="137"
   width="1155"
   style="fill-opacity:1; color-rendering:auto; color-interpolation:auto; text-rendering:auto; stroke:black; stroke-linecap:square; stroke-miterlimit:10; shape-rendering:auto; stroke-opacity:1; fill:black; stroke-dasharray:none; font-weight:normal; stroke-width:1; font-family:'Dialog'; font-style:normal; stroke-linejoin:miter; font-size:12px; stroke-dashoffset:0; image-rendering:auto;">
  <metadata
     id="metadata43">
    <rdf:RDF>
      <cc:Work
         rdf:about="">
        <dc:format>image/svg+xml</dc:format>
        <dc:type
           rdf:resource="http://purl.org/dc/dcmitype/StillImage" />
        <dc:title></dc:title>
      </cc:Work>
    </rdf:RDF>
  </metadata>
  <sodipodi:namedview
     inkscape:current-layer="svg39"
     inkscape:window-maximized="0"
     inkscape:window-y="154"
     inkscape:window-x="1166"
     inkscape:cy="-9.9173492"
     inkscape:cx="648.67573"
     inkscape:zoom="1.0995671"
     showgrid="false"
     id="namedview41"
     inkscape:window-height="1286"
     inkscape:window-width="2423"
     inkscape:pageshadow="2"
     inkscape:pageopacity="0"
     guidetolerance="10"
     gridtolerance="10"
     objecttolerance="10"
     borderopacity="1"
     bordercolor="#666666"
     pagecolor="#ffffff" />
  <!--Generated by the Batik Graphics2D SVG Generator-->
  <defs
     id="genericDefs" />
  <g
     style="stroke-linecap:round"
     transform="translate(-123.68504,5.4566931)"
     id="g37">
    <defs
       id="defs1">
      <clipPath
         id="clipPath1"
         clipPathUnits="userSpaceOnUse">
        <path
           id="path3"
           d="M 0,0 H 1155 V 137 H 0 Z" />
      </clipPath>
    </defs>
    <g
       id="g35"
       style="color-interpolation:linearRGB;fill:#ffffff;stroke:#ffffff;stroke-width:2.5;stroke-linecap:round;stroke-linejoin:round;color-rendering:optimizeQuality;image-rendering:optimizeQuality;text-rendering:geometricPrecision">
      <path
         id="path15"
         style="fill:none;fill-rule:evenodd;stroke-width:2.18733;stroke-linecap:round"
         d="m 150,51.412589 h 8.1147 8.1146 8.1146 8.1147 8.1146 8.1147 8.1146 8.1147 8.1146 8.1147 8.1146 8.1147 8.1146 8.1147 8.1146 8.1147 8.1146 8.1147 8.1146 8.1147 8.1146 8.1146 8.1147 8.1147 8.1146 8.1146 8.1147 8.1146 8.1147 8.1146 8.1147 8.1146 8.1147 8.1146 8.1147 8.1146 8.1146 8.1147 8.1147 8.1146 8.1147 8.1146 8.1146 8.1147 8.1146 8.1147 8.1146 8.1147 8.1146 8.1147 8.1146 8.1147 8.1146 8.1147 8.1146 8.1147 8.1146 8.1147 8.1146 8.1146 8.1147 8.1147 8.1146 8.1147 8.1146 8.1147 8.1146 8.1147 8.1146 8.1146 8.1147 8.1146 8.1147 8.1146 8.1147 8.1146 8.1147 8.1146 8.1147 8.1146 8.1147 8.1146 8.1147 8.1146 8.1147 8.1146 8.1146 8.1147 8.1146 8.1147 8.1146 8.1147 8.1146 8.1147 8.1146 8.1147 8.1146 8.1147 8.1147" />
      <path
         id="path17"
         style="fill:none;fill-rule:evenodd;stroke:#e3e3e3;stroke-width:2.18733;stroke-linecap:round"
         d="m 150,51.412589 8.1147,1.359461 8.1146,1.356477 8.1146,1.350658 8.1147,1.341932 8.1146,1.330296 8.1147,1.315828 8.1146,1.298604 8.1147,1.278548 8.1146,1.255966 8.1147,1.230703 8.1146,1.20284 8.1147,1.172678 8.1146,1.140145 8.1147,1.105237 8.1146,1.068416 8.1147,1.029376 8.1146,0.988498 8.1147,0.945859 8.1146,0.901613 8.1147,0.855759 8.1146,0.808603 8.1146,0.760224 8.1147,0.710773 8.1147,0.660325 8.1146,0.609113 8.1146,0.557212 8.1147,0.504927 8.1146,0.452261 8.1147,0.399441 8.1146,0.346468 8.1147,0.293725 8.1146,0.24121 8.1147,0.189157 8.1146,0.137561 8.1147,0.08666 8.1146,0.03659 8.1146,-0.01248 8.1147,-0.06055 8.1147,-0.107401 8.1146,-0.152948 8.1147,-0.197118 8.1146,-0.23968 8.1146,-0.280787 8.1147,-0.320058 8.1146,-0.357644 8.1147,-0.393317 8.1146,-0.427229 8.1147,-0.458998 8.1146,-0.488852 8.1147,-0.516639 8.1146,-0.542361 8.1147,-0.565939 8.1146,-0.587449 8.1147,-0.606893 8.1146,-0.62404 8.1147,-0.639198 8.1146,-0.652287 8.1147,-0.663235 8.1146,-0.672114 8.1146,-0.679157 8.1147,-0.684132 8.1147,-0.687348 8.1146,-0.688572 8.1147,-0.688114 8.1146,-0.686046 8.1147,-0.682372 8.1146,-0.67709 8.1147,-0.67043 8.1146,-0.662545 8.1146,-0.653283 8.1147,-0.643025 8.1146,-0.631695 8.1147,-0.619447 8.1146,-0.606434 8.1147,-0.592731 8.1146,-0.578417 8.1147,-0.563642 8.1146,-0.548638 8.1147,-0.533251 8.1146,-0.517865 8.1147,-0.502325 8.1146,-0.487091 8.1147,-0.471858 8.1146,-0.457007 8.1147,-0.442539 8.1146,-0.428683 8.1146,-0.41521 8.1147,-0.40258 8.1146,-0.390714 8.1147,-0.379538 8.1146,-0.369433 8.1147,-0.360171 8.1146,-0.351979 8.1147,-0.344784 8.1146,-0.338889 8.1147,-0.333991 8.1146,-0.330392 8.1147,-0.327866 8.1147,-0.326641" />
      <path
         id="path19"
         style="fill:none;fill-rule:evenodd;stroke:#c6c6c6;stroke-width:2.18733;stroke-linecap:round"
         d="m 150,51.412589 8.1147,1.470996 8.1146,1.468929 8.1146,1.464872 8.1147,1.458824 8.1146,1.450787 8.1147,1.440835 8.1146,1.42874 8.1147,1.414885 8.1146,1.399038 8.1147,1.381279 8.1146,1.361758 8.1147,1.340478 8.1146,1.317359 8.1147,1.292556 8.1146,1.26607 8.1147,1.238053 8.1146,1.208428 8.1147,1.177348 8.1146,1.144814 8.1147,1.110978 8.1146,1.075766 8.1146,1.039327 8.1147,1.001817 8.1147,0.96316 8.1146,0.923506 8.1146,0.882858 8.1147,0.841444 8.1146,0.799188 8.1147,0.756243 8.1146,0.71261 8.1147,0.668516 8.1146,0.623811 8.1147,0.578799 8.1146,0.533481 8.1147,0.487857 8.1146,0.442079 8.1146,0.39615 8.1147,0.350218 8.1147,0.304366 8.1146,0.258664 8.1147,0.212964 8.1146,0.167645 8.1146,0.122558 8.1147,0.07793 8.1146,0.03361 8.1147,-0.01018 8.1146,-0.05336 8.1147,-0.09607 8.1146,-0.138097 8.1147,-0.179435 8.1146,-0.220006 8.1147,-0.259966 8.1146,-0.29893 8.1147,-0.337205 8.1146,-0.374639 8.1147,-0.411 8.1146,-0.446596 8.1147,-0.481273 8.1146,-0.51488 8.1146,-0.547566 8.1147,-0.579258 8.1147,-0.609955 8.1146,-0.639657 8.1147,-0.668363 8.1146,-0.695998 8.1147,-0.722638 8.1146,-0.748358 8.1147,-0.772931 8.1146,-0.796509 8.1146,-0.819168 8.1147,-0.840832 8.1146,-0.8615 8.1147,-0.88125 8.1146,-0.899929 8.1147,-0.917842 8.1146,-0.934682 8.1147,-0.950758 8.1146,-0.965839 8.1147,-0.980154 8.1146,-0.99355 8.1147,-1.006181 8.1146,-1.018046 8.1147,-1.028993 8.1146,-1.039251 8.1147,-1.048743 8.1146,-1.057546 8.1146,-1.065661 8.1147,-1.072933 8.1146,-1.079746 8.1147,-1.085717 8.1146,-1.091152 8.1147,-1.095898 8.1146,-1.099955 8.1147,-1.103554 8.1146,-1.106538 8.1147,-1.108759 8.1146,-1.110519 8.1147,-1.111744 8.1147,-1.11228" />
      <path
         id="path21"
         style="fill:none;fill-rule:evenodd;stroke:#aaaaaa;stroke-width:2.18733;stroke-linecap:round"
         d="m 150,51.412589 8.1147,0.681759 8.1146,0.682372 8.1146,0.68375 8.1147,0.685817 8.1146,0.688495 8.1147,0.691788 8.1146,0.695692 8.1147,0.700132 8.1146,0.705107 8.1147,0.710542 8.1146,0.716361 8.1147,0.722561 8.1146,0.729068 8.1147,0.735804 8.1146,0.742617 8.1147,0.74966 8.1146,0.756626 8.1147,0.763515 8.1146,0.770252 8.1147,0.776759 8.1146,0.782883 8.1146,0.788624 8.1147,0.793906 8.1147,0.798423 8.1146,0.802403 8.1146,0.805542 8.1147,0.807762 8.1146,0.809139 8.1147,0.809293 8.1146,0.808451 8.1147,0.806307 8.1146,0.802863 8.1147,0.798116 8.1146,0.791839 8.1147,0.784108 8.1146,0.774692 8.1146,0.763745 8.1147,0.750961 8.1147,0.73657 8.1146,0.720341 8.1147,0.702275 8.1146,0.682296 8.1146,0.660478 8.1147,0.636824 8.1146,0.611104 8.1147,0.583545 8.1146,0.554149 8.1147,0.522688 8.1146,0.489464 8.1147,0.454328 8.1146,0.41743 8.1147,0.37862 8.1146,0.338124 8.1147,0.295944 8.1146,0.252158 8.1147,0.206839 8.1146,0.159991 8.1147,0.111687 8.1146,0.06216 8.1146,0.01141 8.1147,-0.0405 8.1147,-0.09339 8.1146,-0.147131 8.1147,-0.201787 8.1146,-0.25698 8.1147,-0.312786 8.1146,-0.368974 8.1147,-0.425391 8.1146,-0.482039 8.1146,-0.53861 8.1147,-0.595105 8.1146,-0.651292 8.1147,-0.707098 8.1146,-0.762291 8.1147,-0.816794 8.1146,-0.870534 8.1147,-0.923123 8.1146,-0.974719 8.1147,-1.025089 8.1146,-1.073928 8.1147,-1.121313 8.1146,-1.167013 8.1147,-1.210954 8.1146,-1.25298 8.1147,-1.292939 8.1146,-1.330832 8.1146,-1.366505 8.1147,-1.399804 8.1146,-1.430577 8.1147,-1.458978 8.1146,-1.484698 8.1147,-1.507817 8.1146,-1.528103 8.1147,-1.545633 8.1146,-1.560407 8.1147,-1.572119 8.1146,-1.581 8.1147,-1.58697 8.1147,-1.589955" />
      <path
         id="path23"
         style="fill:none;fill-rule:evenodd;stroke:#8e8e8e;stroke-width:2.18733;stroke-linecap:round"
         d="m 150,51.412589 8.1147,0.111534 8.1146,0.112453 8.1146,0.114213 8.1147,0.116969 8.1146,0.120491 8.1147,0.124931 8.1146,0.130212 8.1147,0.136184 8.1146,0.143149 8.1147,0.150575 8.1146,0.158919 8.1147,0.167799 8.1146,0.177215 8.1147,0.187242 8.1146,0.197807 8.1147,0.2086 8.1146,0.21993 8.1147,0.231489 8.1146,0.243201 8.1147,0.255144 8.1146,0.267161 8.1146,0.27918 8.1147,0.291045 8.1147,0.302835 8.1146,0.314393 8.1146,0.325646 8.1147,0.336516 8.1146,0.346928 8.1147,0.356802 8.1146,0.366141 8.1147,0.374715 8.1146,0.382677 8.1147,0.389719 8.1146,0.395919 8.1147,0.401126 8.1146,0.405488 8.1146,0.408627 8.1147,0.410847 8.1147,0.411766 8.1146,0.411536 8.1147,0.410081 8.1146,0.407326 8.1146,0.403345 8.1147,0.397986 8.1146,0.39125 8.1147,0.383212 8.1146,0.37372 8.1147,0.363003 8.1146,0.350755 8.1147,0.337205 8.1146,0.322355 8.1147,0.306049 8.1146,0.288443 8.1147,0.269611 8.1146,0.249478 8.1147,0.228198 8.1146,0.205614 8.1147,0.182038 8.1146,0.157311 8.1146,0.131514 8.1147,0.104874 8.1147,0.07732 8.1146,0.04899 8.1147,0.01975 8.1146,-0.01 8.1147,-0.04034 8.1146,-0.07119 8.1147,-0.102425 8.1146,-0.13404 8.1146,-0.165885 8.1147,-0.197806 8.1146,-0.229805 8.1147,-0.261803 8.1146,-0.293572 8.1147,-0.325034 8.1146,-0.356343 8.1147,-0.387039 8.1146,-0.417201 8.1147,-0.446902 8.1146,-0.475762 8.1147,-0.50378 8.1146,-0.530954 8.1147,-0.557136 8.1146,-0.582243 8.1147,-0.606204 8.1146,-0.62894 8.1146,-0.650297 8.1147,-0.67043 8.1146,-0.689032 8.1147,-0.706179 8.1146,-0.721719 8.1147,-0.735728 8.1146,-0.748052 8.1147,-0.758693 8.1146,-0.767649 8.1147,-0.774769 8.1146,-0.780203 8.1147,-0.783802 8.1147,-0.785638" />
      <path
         id="path25"
         style="fill:none;fill-rule:evenodd;stroke:#717171;stroke-width:2.18733;stroke-linecap:round"
         d="m 150,51.412589 8.1147,-0.111535 8.1146,-0.112452 8.1146,-0.114214 8.1147,-0.116969 8.1146,-0.120491 8.1147,-0.12493 8.1146,-0.130213 8.1147,-0.136183 8.1146,-0.14315 8.1147,-0.150575 8.1146,-0.158919 8.1147,-0.167799 8.1146,-0.177214 8.1147,-0.187243 8.1146,-0.197807 8.1147,-0.2086 8.1146,-0.21993 8.1147,-0.231489 8.1146,-0.243201 8.1147,-0.255143 8.1146,-0.267162 8.1146,-0.27918 8.1147,-0.291045 8.1147,-0.302834 8.1146,-0.314394 8.1146,-0.325646 8.1147,-0.336516 8.1146,-0.346927 8.1147,-0.356803 8.1146,-0.366141 8.1147,-0.374715 8.1146,-0.382677 8.1147,-0.389719 8.1146,-0.395919 8.1147,-0.401125 8.1146,-0.405489 8.1146,-0.408627 8.1147,-0.410847 8.1147,-0.411765 8.1146,-0.411536 8.1147,-0.410082 8.1146,-0.407326 8.1146,-0.403345 8.1147,-0.397986 8.1146,-0.39125 8.1147,-0.383212 8.1146,-0.37372 8.1147,-0.363003 8.1146,-0.350755 8.1147,-0.337205 8.1146,-0.322355 8.1147,-0.306049 8.1146,-0.288443 8.1147,-0.269611 8.1146,-0.249478 8.1147,-0.228197 8.1146,-0.205615 8.1147,-0.182038 8.1146,-0.157311 8.1146,-0.131514 8.1147,-0.104874 8.1147,-0.07732 8.1146,-0.04899 8.1147,-0.01983 8.1146,0.01003 8.1147,0.04034 8.1146,0.07119 8.1147,0.102425 8.1146,0.13404 8.1146,0.165885 8.1147,0.197807 8.1146,0.229881 8.1147,0.261726 8.1146,0.293572 8.1147,0.325034 8.1146,0.356343 8.1147,0.387039 8.1146,0.417201 8.1147,0.446902 8.1146,0.475762 8.1147,0.50378 8.1146,0.530955 8.1147,0.557135 8.1146,0.582244 8.1147,0.606204 8.1146,0.628939 8.1146,0.650297 8.1147,0.67043 8.1146,0.689032 8.1147,0.706179 8.1146,0.721719 8.1147,0.735728 8.1146,0.748052 8.1147,0.758693 8.1146,0.767649 8.1147,0.774769 8.1146,0.780203 8.1147,0.783802 8.1147,0.785639" />
      <path
         id="path27"
         style="fill:none;fill-rule:evenodd;stroke:#555555;stroke-width:2.18733;stroke-linecap:round"
         d="m 150,51.412589 8.1147,-0.68176 8.1146,-0.682372 8.1146,-0.683826 8.1147,-0.68574 8.1146,-0.688496 8.1147,-0.691788 8.1146,-0.695692 8.1147,-0.700131 8.1146,-0.705108 8.1147,-0.710466 8.1146,-0.716437 8.1147,-0.722561 8.1146,-0.729067 8.1147,-0.735805 8.1146,-0.742617 8.1147,-0.74966 8.1146,-0.756626 8.1147,-0.763515 8.1146,-0.770252 8.1147,-0.776759 8.1146,-0.782883 8.1146,-0.788624 8.1147,-0.793906 8.1147,-0.798423 8.1146,-0.802403 8.1146,-0.805542 8.1147,-0.807762 8.1146,-0.809139 8.1147,-0.809293 8.1146,-0.808451 8.1147,-0.806307 8.1146,-0.802863 8.1147,-0.798116 8.1146,-0.791839 8.1147,-0.784108 8.1146,-0.774692 8.1146,-0.763745 8.1147,-0.750961 8.1147,-0.73657 8.1146,-0.720341 8.1147,-0.702275 8.1146,-0.682295 8.1146,-0.660479 8.1147,-0.636824 8.1146,-0.611103 8.1147,-0.583546 8.1146,-0.554149 8.1147,-0.522688 8.1146,-0.489464 8.1147,-0.454328 8.1146,-0.41743 8.1147,-0.378619 8.1146,-0.338124 8.1147,-0.295945 8.1146,-0.252158 8.1147,-0.206839 8.1146,-0.159991 8.1147,-0.111687 8.1146,-0.06216 8.1146,-0.01141 8.1147,0.04049 8.1147,0.09339 8.1146,0.14713 8.1147,0.201787 8.1146,0.256981 8.1147,0.312785 8.1146,0.368974 8.1147,0.425392 8.1146,0.482039 8.1146,0.53861 8.1147,0.595104 8.1146,0.651292 8.1147,0.707098 8.1146,0.762291 8.1147,0.816794 8.1146,0.870534 8.1147,0.923123 8.1146,0.974719 8.1147,1.025089 8.1146,1.073928 8.1147,1.121313 8.1146,1.167013 8.1147,1.210954 8.1146,1.25298 8.1147,1.29294 8.1146,1.330831 8.1146,1.366505 8.1147,1.399804 8.1146,1.430577 8.1147,1.458978 8.1146,1.484699 8.1147,1.507816 8.1146,1.528103 8.1147,1.545633 8.1146,1.560407 8.1147,1.57212 8.1146,1.580999 8.1147,1.58697 8.1147,1.589956" />
      <path
         id="path29"
         style="fill:none;fill-rule:evenodd;stroke:#393939;stroke-width:2.18733;stroke-linecap:round"
         d="m 150,51.412589 8.1147,-1.470996 8.1146,-1.46893 8.1146,-1.464872 8.1147,-1.458824 8.1146,-1.450787 8.1147,-1.440835 8.1146,-1.42874 8.1147,-1.414885 8.1146,-1.399038 8.1147,-1.381279 8.1146,-1.361758 8.1147,-1.340477 8.1146,-1.317359 8.1147,-1.292557 8.1146,-1.26607 8.1147,-1.238053 8.1146,-1.208427 8.1147,-1.177348 8.1146,-1.144814 8.1147,-1.110979 8.1146,-1.075765 8.1146,-1.039328 8.1147,-1.001817 8.1147,-0.96316 8.1146,-0.923506 8.1146,-0.882858 8.1147,-0.841444 8.1146,-0.799188 8.1147,-0.756243 8.1146,-0.71261 8.1147,-0.668516 8.1146,-0.623811 8.1147,-0.578799 8.1146,-0.533481 8.1147,-0.487856 8.1146,-0.44208 8.1146,-0.396149 8.1147,-0.350219 8.1147,-0.304365 8.1146,-0.258665 8.1147,-0.212964 8.1146,-0.167645 8.1146,-0.122558 8.1147,-0.07793 8.1146,-0.03361 8.1147,0.01018 8.1146,0.05336 8.1147,0.09607 8.1146,0.138097 8.1147,0.179435 8.1146,0.220006 8.1147,0.259966 8.1146,0.29893 8.1147,0.337205 8.1146,0.374639 8.1147,0.411 8.1146,0.446596 8.1147,0.481274 8.1146,0.514879 8.1146,0.547566 8.1147,0.579258 8.1147,0.609956 8.1146,0.639656 8.1147,0.668363 8.1146,0.695998 8.1147,0.722638 8.1146,0.748358 8.1147,0.772932 8.1146,0.796508 8.1146,0.819168 8.1147,0.840832 8.1146,0.8615 8.1147,0.881251 8.1146,0.899928 8.1147,0.917842 8.1146,0.934682 8.1147,0.950759 8.1146,0.965838 8.1147,0.980154 8.1146,0.99355 8.1147,1.006181 8.1146,1.018046 8.1147,1.028993 8.1146,1.039251 8.1147,1.048743 8.1146,1.057546 8.1146,1.065661 8.1147,1.072933 8.1146,1.079746 8.1147,1.085717 8.1146,1.091152 8.1147,1.095898 8.1146,1.099955 8.1147,1.103554 8.1146,1.106538 8.1147,1.108759 8.1146,1.110519 8.1147,1.111745 8.1147,1.11228" />
      <path
         id="path31"
         style="fill:none;fill-rule:evenodd;stroke:#1c1c1c;stroke-width:2.18733;stroke-linecap:round"
         d="m 150,51.412589 8.1147,-1.359462 8.1146,-1.356477 8.1146,-1.350658 8.1147,-1.341932 8.1146,-1.330296 8.1147,-1.315828 8.1146,-1.298604 8.1147,-1.278548 8.1146,-1.255965 8.1147,-1.230704 8.1146,-1.20284 8.1147,-1.172678 8.1146,-1.140144 8.1147,-1.105238 8.1146,-1.068416 8.1147,-1.029376 8.1146,-0.988498 8.1147,-0.945859 8.1146,-0.901612 8.1147,-0.855759 8.1146,-0.808604 8.1146,-0.760224 8.1147,-0.710772 8.1147,-0.660326 8.1146,-0.609113 8.1146,-0.557211 8.1147,-0.504928 8.1146,-0.452261 8.1147,-0.399441 8.1146,-0.346468 8.1147,-0.293724 8.1146,-0.241211 8.1147,-0.189157 8.1146,-0.137561 8.1147,-0.08666 8.1146,-0.03659 8.1146,0.01248 8.1147,0.06055 8.1147,0.1074 8.1146,0.152948 8.1147,0.197118 8.1146,0.23968 8.1146,0.280787 8.1147,0.320058 8.1146,0.357645 8.1147,0.393317 8.1146,0.427228 8.1147,0.458998 8.1146,0.488852 8.1147,0.51664 8.1146,0.542361 8.1147,0.565938 8.1146,0.587449 8.1147,0.606893 8.1146,0.624041 8.1147,0.639197 8.1146,0.652288 8.1147,0.663234 8.1146,0.672114 8.1146,0.679157 8.1147,0.684132 8.1147,0.687348 8.1146,0.688573 8.1147,0.688113 8.1146,0.686046 8.1147,0.682372 8.1146,0.67709 8.1147,0.67043 8.1146,0.662545 8.1146,0.653283 8.1147,0.643025 8.1146,0.631695 8.1147,0.619448 8.1146,0.606433 8.1147,0.592732 8.1146,0.578416 8.1147,0.563642 8.1146,0.548638 8.1147,0.533251 8.1146,0.517865 8.1147,0.502325 8.1146,0.487091 8.1147,0.471858 8.1146,0.457007 8.1147,0.442539 8.1146,0.428607 8.1146,0.415287 8.1147,0.402579 8.1146,0.390714 8.1147,0.379538 8.1146,0.369433 8.1147,0.360171 8.1146,0.351979 8.1147,0.344784 8.1146,0.33889 8.1147,0.33399 8.1146,0.330392 8.1147,0.327866 8.1147,0.326642" />
      <path
         id="path33"
         style="fill:none;fill-rule:evenodd;stroke:#000000;stroke-width:2.18733;stroke-linecap:round"
         d="m 150,51.412589 h 8.1147 8.1146 8.1146 8.1147 8.1146 8.1147 8.1146 8.1147 8.1146 8.1147 8.1146 8.1147 8.1146 8.1147 8.1146 8.1147 8.1146 8.1147 8.1146 8.1147 8.1146 8.1146 8.1147 8.1147 8.1146 8.1146 8.1147 8.1146 8.1147 8.1146 8.1147 8.1146 8.1147 8.1146 8.1147 8.1146 8.1146 8.1147 8.1147 8.1146 8.1147 8.1146 8.1146 8.1147 8.1146 8.1147 8.1146 8.1147 8.1146 8.1147 8.1146 8.1147 8.1146 8.1147 8.1146 8.1147 8.1146 8.1147 8.1146 8.1146 8.1147 8.1147 8.1146 8.1147 8.1146 8.1147 8.1146 8.1147 8.1146 8.1146 8.1147 8.1146 8.1147 8.1146 8.1147 8.1146 8.1147 8.1146 8.1147 8.1146 8.1147 8.1146 8.1147 8.1146 8.1147 8.1146 8.1146 8.1147 8.1146 8.1147 8.1146 8.1147 8.1146 8.1147 8.1146 8.1147 8.1146 8.1147 8.1147" />
    </g>
  </g>
</svg>
