{
  "title" : "",
  "description" : "",
  "author" : "",
  "targetLoudness" : -18.0,
  "shouldApplyLoudnessNormalization" : true,
  "videoFormatFrameRate" : 30,
  "audioFormatSampleRate" : 44100,
  "width" : 936.0,
  "height" : 720.0,
  "version" : "3.0",
  "editRate" : 30,
  "authoringClientName" :  {
    "name" : "Camtasia",
    "platform" : "Windows",
    "version" : "19.0"
  },
  "sourceBin" : [
    {
      "id" : 1,
      "src" : "D:\\MathworksOnedrive\\OneDrive - MathWorks\\Projects\\2020-07-01-CM-Math\\Content\\MatrixOperations\\SupportingFiles\\matrixMult.png",
      "rect" : [0, 0, 935, 760],
      "lastMod" : "20201203T190530",
      "sourceTracks" : [
        {
          "range" : [0, 1],
          "type" : 1,
          "editRate" : 10000000,
          "trackRect" : [0, 0, 935, 760],
          "sampleRate" : 0,
          "bitDepth" : 32,
          "numChannels" : 0,
          "integratedLUFS" : 100.0,
          "peakLevel" : -1.0,
          "metaData" : ""
        }
      ]
    },
    {
      "id" : 2,
      "src" : "D:\\MathworksOnedrive\\OneDrive - MathWorks\\Projects\\2020-07-01-CM-Math\\Content\\MatrixOperations\\SupportingFiles\\matrixMult2.png",
      "rect" : [0, 0, 882, 745],
      "lastMod" : "20201203T193729",
      "sourceTracks" : [
        {
          "range" : [0, 1],
          "type" : 1,
          "editRate" : 10000000,
          "trackRect" : [0, 0, 882, 745],
          "sampleRate" : 0,
          "bitDepth" : 32,
          "numChannels" : 0,
          "integratedLUFS" : 100.0,
          "peakLevel" : -1.0,
          "metaData" : ""
        }
      ]
    },
    {
      "id" : 3,
      "src" : "D:\\MathworksOnedrive\\OneDrive - MathWorks\\Projects\\2020-07-01-CM-Math\\Content\\MatrixOperations\\SupportingFiles\\ab.png",
      "rect" : [0, 0, 127, 72],
      "lastMod" : "20201203T202234",
      "sourceTracks" : [
        {
          "range" : [0, 1],
          "type" : 1,
          "editRate" : 10000000,
          "trackRect" : [0, 0, 127, 72],
          "sampleRate" : 0,
          "bitDepth" : 32,
          "numChannels" : 0,
          "integratedLUFS" : 100.0,
          "peakLevel" : -1.0,
          "metaData" : ""
        }
      ]
    },
    {
      "id" : 4,
      "src" : "D:\\MathworksOnedrive\\OneDrive - MathWorks\\Projects\\2020-07-01-CM-Math\\Content\\MatrixOperations\\SupportingFiles\\A.png",
      "rect" : [0, 0, 275, 126],
      "lastMod" : "20201203T202309",
      "sourceTracks" : [
        {
          "range" : [0, 1],
          "type" : 1,
          "editRate" : 10000000,
          "trackRect" : [0, 0, 275, 126],
          "sampleRate" : 0,
          "bitDepth" : 32,
          "numChannels" : 0,
          "integratedLUFS" : 100.0,
          "peakLevel" : -1.0,
          "metaData" : ""
        }
      ]
    },
    {
      "id" : 5,
      "src" : "D:\\MathworksOnedrive\\OneDrive - MathWorks\\Projects\\2020-07-01-CM-Math\\Content\\MatrixOperations\\SupportingFiles\\A2.png",
      "rect" : [0, 0, 313, 193],
      "lastMod" : "20201203T202415",
      "sourceTracks" : [
        {
          "range" : [0, 1],
          "type" : 1,
          "editRate" : 10000000,
          "trackRect" : [0, 0, 313, 193],
          "sampleRate" : 0,
          "bitDepth" : 32,
          "numChannels" : 0,
          "integratedLUFS" : 100.0,
          "peakLevel" : -1.0,
          "metaData" : ""
        }
      ]
    },
    {
      "id" : 6,
      "src" : "D:\\MathworksOnedrive\\OneDrive - MathWorks\\Projects\\2020-07-01-CM-Math\\Content\\MatrixOperations\\SupportingFiles\\B.png",
      "rect" : [0, 0, 226, 275],
      "lastMod" : "20201203T202453",
      "sourceTracks" : [
        {
          "range" : [0, 1],
          "type" : 1,
          "editRate" : 10000000,
          "trackRect" : [0, 0, 226, 275],
          "sampleRate" : 0,
          "bitDepth" : 32,
          "numChannels" : 0,
          "integratedLUFS" : 100.0,
          "peakLevel" : -1.0,
          "metaData" : ""
        }
      ]
    },
    {
      "id" : 7,
      "src" : "D:\\MathworksOnedrive\\OneDrive - MathWorks\\Projects\\2020-07-01-CM-Math\\Content\\MatrixOperations\\SupportingFiles\\ab2.png",
      "rect" : [0, 0, 335, 187],
      "lastMod" : "20201203T202728",
      "sourceTracks" : [
        {
          "range" : [0, 1],
          "type" : 1,
          "editRate" : 10000000,
          "trackRect" : [0, 0, 335, 187],
          "sampleRate" : 0,
          "bitDepth" : 32,
          "numChannels" : 0,
          "integratedLUFS" : 100.0,
          "peakLevel" : -1.0,
          "metaData" : ""
        }
      ]
    },
    {
      "id" : 8,
      "src" : "D:\\MathworksOnedrive\\OneDrive - MathWorks\\Projects\\2020-07-01-CM-Math\\Content\\MatrixOperations\\SupportingFiles\\matrixMult3.png",
      "rect" : [0, 0, 1143, 602],
      "lastMod" : "20201204T134239",
      "sourceTracks" : [
        {
          "range" : [0, 1],
          "type" : 1,
          "editRate" : 10000000,
          "trackRect" : [0, 0, 1143, 602],
          "sampleRate" : 0,
          "bitDepth" : 32,
          "numChannels" : 0,
          "integratedLUFS" : 100.0,
          "peakLevel" : -1.0,
          "metaData" : ""
        }
      ]
    }
  ],
  "timeline" : {
    "id" : 9,
    "sceneTrack" : {
      "scenes" : [
        {
          "duration" : 59.4,
          "title" : "",
          "type" : "",
          "csml" : {
            "tracks" : [
              {
                "trackIndex" : 0,
                "medias" : [
                  {
                    "id" : 10,
                    "_type" : "Callout",
                    "def" : {
                      "kind" : "remix",
                      "shape" : "shape-rectangle",
                      "style" : "basic",
                      "fill-color-blue" : 1.0,
                      "fill-color-green" : 1.0,
                      "fill-color-opacity" : 1.0,
                      "fill-color-red" : 1.0,
                      "height" : 864.999999999774,
                      "stroke-color-blue" : 1.0,
                      "stroke-color-green" : 1.0,
                      "stroke-color-opacity" : 1.0,
                      "stroke-color-red" : 1.0,
                      "stroke-width" : 0.0,
                      "width" : 1056.99999999995,
                      "fill-style" : "solid",
                      "stroke-style" : "solid"
                    },
                    "attributes" : {
                      "autoRotateText" : true
                    },
                    "parameters" : {
                      "translation0" : 0.800000000030082,
                      "translation1" : -34.9999999999632
                    },
                    "effects" : [

                    ],
                    "start" : 0,
                    "duration" : 1782,
                    "mediaStart" : 0,
                    "mediaDuration" : 1782,
                    "scalar" : 1,
                    "metadata" : {
                      "clipSpeedAttribute" : false,
                      "default-translation0" : 0.0,
                      "default-translation1" : 0.0
                    },
                    "animationTracks" : {

                    }
                  }
                ]
              },
              {
                "trackIndex" : 1,
                "medias" : [
                  {
                    "id" : 11,
                    "_type" : "IMFile",
                    "src" : 8,
                    "trackNumber" : 0,
                    "trimStartSum" : 0,
                    "attributes" : {
                      "ident" : "matrixMult3"
                    },
                    "parameters" : {
                      "translation0" : {
                        "type" : "double",
                        "defaultValue" : 0.79999999985851,
                        "interp" : "eioe"
                      },
                      "translation1" : {
                        "type" : "double",
                        "defaultValue" : -51.9584426945996,
                        "interp" : "eioe"
                      },
                      "scale0" : {
                        "type" : "double",
                        "defaultValue" : 0.777602799650144,
                        "interp" : "eioe"
                      },
                      "scale1" : {
                        "type" : "double",
                        "defaultValue" : 0.777602799650144,
                        "interp" : "eioe"
                      }
                    },
                    "effects" : [

                    ],
                    "start" : 0,
                    "duration" : 1782,
                    "mediaStart" : 0,
                    "mediaDuration" : 569,
                    "scalar" : 1,
                    "metadata" : {
                      "clipSpeedAttribute" : false,
                      "default-scale0" : 0.818897637795276,
                      "default-scale1" : 0.818897637795276,
                      "default-translation0" : 0.0,
                      "default-translation1" : 0.0
                    },
                    "animationTracks" : {

                    }
                  }
                ]
              },
              {
                "trackIndex" : 2,
                "medias" : [
                  {
                    "id" : 12,
                    "_type" : "Callout",
                    "def" : {
                      "kind" : "remix",
                      "shape" : "shape-rectangle",
                      "style" : "basic",
                      "fill-color-blue" : 1.0,
                      "fill-color-green" : 1.0,
                      "fill-color-opacity" : 1.0,
                      "fill-color-red" : 1.0,
                      "height" : {
                        "type" : "double",
                        "defaultValue" : 193.800005501551,
                        "keyframes" : [
                          {
                            "endTime" : 338,
                            "time" : 308,
                            "value" : 129.499996346411,
                            "duration" : 30
                          },
                          {
                            "endTime" : 950,
                            "time" : 920,
                            "value" : 70.1232372941768,
                            "duration" : 30
                          }
                        ]
                      },
                      "stroke-color-blue" : 1.0,
                      "stroke-color-green" : 1.0,
                      "stroke-color-opacity" : 1.0,
                      "stroke-color-red" : 1.0,
                      "stroke-width" : 0.0,
                      "width" : {
                        "type" : "double",
                        "defaultValue" : 314.523952897988,
                        "keyframes" : [
                          {
                            "endTime" : 338,
                            "time" : 308,
                            "value" : 280.556359917066,
                            "duration" : 30
                          },
                          {
                            "endTime" : 950,
                            "time" : 920,
                            "value" : 332.556357305756,
                            "duration" : 30
                          }
                        ]
                      },
                      "fill-style" : "solid",
                      "stroke-style" : "solid"
                    },
                    "attributes" : {
                      "autoRotateText" : true
                    },
                    "parameters" : {
                      "translation0" : {
                        "type" : "double",
                        "defaultValue" : -59.0718326326029,
                        "keyframes" : [
                          {
                            "endTime" : 338,
                            "time" : 308,
                            "value" : -90.888037748614,
                            "duration" : 30
                          },
                          {
                            "endTime" : 950,
                            "time" : 920,
                            "value" : -64.888039054269,
                            "duration" : 30
                          }
                        ]
                      },
                      "translation1" : {
                        "type" : "double",
                        "defaultValue" : -180.099995422243,
                        "keyframes" : [
                          {
                            "endTime" : 338,
                            "time" : 308,
                            "value" : -220.249999999741,
                            "duration" : 30
                          },
                          {
                            "endTime" : 950,
                            "time" : 920,
                            "value" : -249.938379525858,
                            "duration" : 30
                          }
                        ]
                      }
                    },
                    "effects" : [

                    ],
                    "start" : 0,
                    "duration" : 1343,
                    "mediaStart" : 0,
                    "mediaDuration" : 1343,
                    "scalar" : 1,
                    "metadata" : {
                      "clipSpeedAttribute" : false,
                      "default-translation0" : 0.0,
                      "default-translation1" : 0.0
                    },
                    "animationTracks" : {
                      "visual" : [
                        {
                          "endTime" : 338,
                          "duration" : 30,
                          "range" : [ 308, 30]
                        },
                        {
                          "endTime" : 595,
                          "duration" : 30,
                          "range" : [ 565, 30]
                        },
                        {
                          "endTime" : 950,
                          "duration" : 30,
                          "range" : [ 920, 30]
                        }
                      ]
                    }
                  }
                ],
                "transitions" : [
                  {
                    "name" : "Fade",
                    "duration" : 15,
                    "trivial" : false,
                    "reverse" : false,
                    "useAudioPreRoll" : true,
                    "useVisualPreRoll" : true,
                    "leftMedia" : 12
                  }
                ]
              },
              {
                "trackIndex" : 3,
                "medias" : [
                  {
                    "id" : 13,
                    "_type" : "Callout",
                    "def" : {
                      "kind" : "remix",
                      "shape" : "shape-rectangle",
                      "style" : "basic",
                      "fill-color-blue" : 1.0,
                      "fill-color-green" : 1.0,
                      "fill-color-opacity" : 1.0,
                      "fill-color-red" : 1.0,
                      "height" : {
                        "type" : "double",
                        "defaultValue" : 195.053521126443,
                        "keyframes" : [
                          {
                            "endTime" : 338,
                            "time" : 308,
                            "value" : 184.65352112648,
                            "duration" : 30
                          },
                          {
                            "endTime" : 873,
                            "time" : 843,
                            "value" : 118.753513497225,
                            "duration" : 30
                          },
                          {
                            "endTime" : 1278,
                            "time" : 1248,
                            "value" : 59.3767530145613,
                            "duration" : 30
                          },
                          {
                            "endTime" : 1316,
                            "time" : 1286,
                            "value" : 59.3767539683218,
                            "duration" : 30
                          }
                        ]
                      },
                      "stroke-color-blue" : 1.0,
                      "stroke-color-green" : 1.0,
                      "stroke-color-opacity" : 1.0,
                      "stroke-color-red" : 1.0,
                      "stroke-width" : 0.0,
                      "width" : {
                        "type" : "double",
                        "defaultValue" : 314.523943984336,
                        "keyframes" : [
                          {
                            "endTime" : 338,
                            "time" : 308,
                            "value" : 216.923943984436,
                            "duration" : 30
                          },
                          {
                            "endTime" : 595,
                            "time" : 565,
                            "value" : 100.590137739998,
                            "duration" : 30
                          },
                          {
                            "endTime" : 904,
                            "time" : 886,
                            "value" : 328.466183531443,
                            "duration" : 18
                          },
                          {
                            "endTime" : 1029,
                            "time" : 999,
                            "value" : 236.123943023088,
                            "duration" : 30
                          },
                          {
                            "endTime" : 1149,
                            "time" : 1119,
                            "value" : 100.590138785202,
                            "duration" : 30
                          },
                          {
                            "endTime" : 1316,
                            "time" : 1286,
                            "value" : 322.190138785223,
                            "duration" : 30
                          },
                          {
                            "endTime" : 1430,
                            "time" : 1400,
                            "value" : 206.990138785312,
                            "duration" : 30
                          },
                          {
                            "endTime" : 1550,
                            "time" : 1520,
                            "value" : 74.9901387853627,
                            "duration" : 30
                          },
                          {
                            "endTime" : 1662,
                            "time" : 1632,
                            "value" : 2.99013878539651,
                            "duration" : 30
                          }
                        ]
                      },
                      "fill-style" : "solid",
                      "stroke-style" : "solid"
                    },
                    "attributes" : {
                      "autoRotateText" : true
                    },
                    "parameters" : {
                      "translation0" : {
                        "type" : "double",
                        "defaultValue" : -59.0718311470094,
                        "keyframes" : [
                          {
                            "endTime" : 338,
                            "time" : 308,
                            "value" : -7.07183114699151,
                            "duration" : 30
                          },
                          {
                            "endTime" : 595,
                            "time" : 565,
                            "value" : 51.0950719752275,
                            "duration" : 30
                          },
                          {
                            "endTime" : 904,
                            "time" : 886,
                            "value" : -54.9669051291842,
                            "duration" : 18
                          },
                          {
                            "endTime" : 1029,
                            "time" : 999,
                            "value" : -16.6718306663172,
                            "duration" : 30
                          },
                          {
                            "endTime" : 1149,
                            "time" : 1119,
                            "value" : 51.0950714526257,
                            "duration" : 30
                          },
                          {
                            "endTime" : 1316,
                            "time" : 1286,
                            "value" : -59.7049285473851,
                            "duration" : 30
                          },
                          {
                            "endTime" : 1430,
                            "time" : 1400,
                            "value" : -2.10492854742961,
                            "duration" : 30
                          },
                          {
                            "endTime" : 1550,
                            "time" : 1520,
                            "value" : 63.8950714525453,
                            "duration" : 30
                          },
                          {
                            "endTime" : 1662,
                            "time" : 1632,
                            "value" : 99.8950714525284,
                            "duration" : 30
                          }
                        ]
                      },
                      "translation1" : {
                        "type" : "double",
                        "defaultValue" : -191.126754760629,
                        "keyframes" : [
                          {
                            "endTime" : 338,
                            "time" : 308,
                            "value" : -181.92675476061,
                            "duration" : 30
                          },
                          {
                            "endTime" : 873,
                            "time" : 843,
                            "value" : -214.876758575237,
                            "duration" : 30
                          },
                          {
                            "endTime" : 1278,
                            "time" : 1248,
                            "value" : -244.565138816569,
                            "duration" : 30
                          },
                          {
                            "endTime" : 1316,
                            "time" : 1286,
                            "value" : -244.565138339689,
                            "duration" : 30
                          }
                        ]
                      }
                    },
                    "effects" : [

                    ],
                    "start" : 0,
                    "duration" : 1782,
                    "mediaStart" : 0,
                    "mediaDuration" : 1782,
                    "scalar" : 1,
                    "metadata" : {
                      "clipSpeedAttribute" : false,
                      "default-translation0" : 0.0,
                      "default-translation1" : 0.0
                    },
                    "animationTracks" : {
                      "visual" : [
                        {
                          "endTime" : 338,
                          "duration" : 30,
                          "range" : [ 308, 30]
                        },
                        {
                          "endTime" : 595,
                          "duration" : 30,
                          "range" : [ 565, 30]
                        },
                        {
                          "endTime" : 873,
                          "duration" : 30,
                          "range" : [ 843, 30]
                        },
                        {
                          "endTime" : 904,
                          "duration" : 18,
                          "range" : [ 886, 18]
                        },
                        {
                          "endTime" : 1029,
                          "duration" : 30,
                          "range" : [ 999, 30]
                        },
                        {
                          "endTime" : 1149,
                          "duration" : 30,
                          "range" : [ 1119, 30]
                        },
                        {
                          "endTime" : 1278,
                          "duration" : 30,
                          "range" : [ 1248, 30]
                        },
                        {
                          "endTime" : 1316,
                          "duration" : 30,
                          "range" : [ 1286, 30]
                        },
                        {
                          "endTime" : 1430,
                          "duration" : 30,
                          "range" : [ 1400, 30]
                        },
                        {
                          "endTime" : 1550,
                          "duration" : 30,
                          "range" : [ 1520, 30]
                        },
                        {
                          "endTime" : 1662,
                          "duration" : 30,
                          "range" : [ 1632, 30]
                        }
                      ]
                    }
                  }
                ],
                "transitions" : [
                  {
                    "name" : "Fade",
                    "duration" : 12,
                    "trivial" : false,
                    "reverse" : false,
                    "useAudioPreRoll" : true,
                    "useVisualPreRoll" : true,
                    "leftMedia" : 13
                  }
                ]
              },
              {
                "trackIndex" : 4,
                "medias" : [
                  {
                    "id" : 14,
                    "_type" : "Callout",
                    "def" : {
                      "kind" : "remix",
                      "shape" : "shape-rectangle",
                      "style" : "basic",
                      "fill-color-blue" : 0.0,
                      "fill-color-green" : 0.0,
                      "fill-color-opacity" : 0.0,
                      "fill-color-red" : 0.0,
                      "height" : 51.9999999998181,
                      "stroke-color-blue" : 0.145098039215686,
                      "stroke-color-green" : 0.533333333333333,
                      "stroke-color-opacity" : 1.0,
                      "stroke-color-red" : 0.843137254901961,
                      "stroke-width" : 6.0,
                      "width" : 292.966206183972,
                      "fill-style" : "solid",
                      "stroke-style" : "solid"
                    },
                    "attributes" : {
                      "autoRotateText" : true
                    },
                    "parameters" : {
                      "translation0" : -88.4507098606469,
                      "translation1" : {
                        "type" : "double",
                        "defaultValue" : 120.900000000094,
                        "keyframes" : [
                          {
                            "endTime" : 874,
                            "time" : 844,
                            "value" : 60.9000000000991,
                            "duration" : 30
                          },
                          {
                            "endTime" : 1278,
                            "time" : 1248,
                            "value" : -3.09999999990642,
                            "duration" : 30
                          }
                        ]
                      },
                      "geometryCrop2" : {
                        "type" : "double",
                        "defaultValue" : 297.966217041016,
                        "keyframes" : [
                          {
                            "endTime" : 30,
                            "time" : 0,
                            "value" : 0.0,
                            "duration" : 30
                          }
                        ]
                      }
                    },
                    "effects" : [

                    ],
                    "start" : 76,
                    "duration" : 1625,
                    "mediaStart" : 0,
                    "mediaDuration" : 1625,
                    "scalar" : 1,
                    "metadata" : {
                      "clipSpeedAttribute" : false,
                      "default-stroke-color-blue" : 0.0,
                      "default-stroke-color-green" : 0.0,
                      "default-stroke-color-red" : 0.0,
                      "default-translation0" : 0.0,
                      "default-translation1" : 0.0
                    },
                    "animationTracks" : {
                      "visual" : [
                        {
                          "endTime" : 30,
                          "duration" : 30,
                          "range" : [ 0, 30]
                        },
                        {
                          "endTime" : 874,
                          "duration" : 30,
                          "range" : [ 844, 30]
                        },
                        {
                          "endTime" : 1278,
                          "duration" : 30,
                          "range" : [ 1248, 30]
                        }
                      ]
                    }
                  },
                  {
                    "id" : 15,
                    "_type" : "Callout",
                    "def" : {
                      "kind" : "remix",
                      "shape" : "shape-rectangle",
                      "style" : "basic",
                      "fill-color-blue" : 1.0,
                      "fill-color-green" : 1.0,
                      "fill-color-opacity" : 1.0,
                      "fill-color-red" : 1.0,
                      "height" : 193.451747049608,
                      "stroke-color-blue" : 1.0,
                      "stroke-color-green" : 1.0,
                      "stroke-color-opacity" : 1.0,
                      "stroke-color-red" : 1.0,
                      "stroke-width" : 0.0,
                      "width" : 316.800002067986,
                      "fill-style" : "solid",
                      "stroke-style" : "solid"
                    },
                    "attributes" : {
                      "autoRotateText" : true
                    },
                    "parameters" : {
                      "translation0" : -59.999998966007,
                      "translation1" : -189.291011864463
                    },
                    "effects" : [

                    ],
                    "start" : 1745,
                    "duration" : 37,
                    "mediaStart" : 0,
                    "mediaDuration" : 37,
                    "scalar" : 1,
                    "metadata" : {
                      "clipSpeedAttribute" : false,
                      "default-translation0" : 0.0,
                      "default-translation1" : 0.0
                    },
                    "animationTracks" : {

                    }
                  }
                ],
                "transitions" : [
                  {
                    "name" : "Fade",
                    "duration" : 12,
                    "trivial" : false,
                    "reverse" : false,
                    "useAudioPreRoll" : true,
                    "useVisualPreRoll" : true,
                    "leftMedia" : 14
                  },
                  {
                    "name" : "Fade",
                    "duration" : 30,
                    "trivial" : false,
                    "reverse" : false,
                    "useAudioPreRoll" : true,
                    "useVisualPreRoll" : true,
                    "rightMedia" : 15
                  }
                ]
              },
              {
                "trackIndex" : 5,
                "medias" : [
                  {
                    "id" : 16,
                    "_type" : "Callout",
                    "def" : {
                      "kind" : "remix",
                      "shape" : "shape-rectangle",
                      "style" : "basic",
                      "fill-color-blue" : 0.0,
                      "fill-color-green" : 0.0,
                      "fill-color-opacity" : 0.0,
                      "fill-color-red" : 0.0,
                      "height" : 240.699993896312,
                      "stroke-color-blue" : 0.666666666666667,
                      "stroke-color-green" : 0.443137254901961,
                      "stroke-color-opacity" : 1.0,
                      "stroke-color-red" : 0.0,
                      "stroke-width" : 6.0,
                      "width" : 49.5999999997841,
                      "fill-style" : "solid",
                      "stroke-style" : "solid"
                    },
                    "attributes" : {
                      "autoRotateText" : true
                    },
                    "parameters" : {
                      "translation0" : {
                        "type" : "double",
                        "defaultValue" : 206.566212227033,
                        "keyframes" : [
                          {
                            "endTime" : 294,
                            "time" : 264,
                            "value" : 284.966212227043,
                            "duration" : 30
                          },
                          {
                            "endTime" : 560,
                            "time" : 530,
                            "value" : 360.966212227059,
                            "duration" : 30
                          },
                          {
                            "endTime" : 834,
                            "time" : 804,
                            "value" : 207.366212227017,
                            "duration" : 30
                          },
                          {
                            "endTime" : 984,
                            "time" : 954,
                            "value" : 282.566212227049,
                            "duration" : 30
                          },
                          {
                            "endTime" : 1101,
                            "time" : 1071,
                            "value" : 361.766212227043,
                            "duration" : 30
                          },
                          {
                            "endTime" : 1238,
                            "time" : 1208,
                            "value" : 207.366212227017,
                            "duration" : 30
                          },
                          {
                            "endTime" : 1366,
                            "time" : 1336,
                            "value" : 283.366212227033,
                            "duration" : 30
                          },
                          {
                            "endTime" : 1479,
                            "time" : 1449,
                            "value" : 361.766212227043,
                            "duration" : 30
                          }
                        ]
                      },
                      "translation1" : 58.7499969483818,
                      "geometryCrop3" : {
                        "type" : "double",
                        "defaultValue" : 245.699996948242,
                        "keyframes" : [
                          {
                            "endTime" : 31,
                            "time" : 1,
                            "value" : 0.0,
                            "duration" : 30
                          }
                        ]
                      }
                    },
                    "effects" : [

                    ],
                    "start" : 116,
                    "duration" : 1585,
                    "mediaStart" : 0,
                    "mediaDuration" : 1585,
                    "scalar" : 1,
                    "metadata" : {
                      "clipSpeedAttribute" : false,
                      "default-stroke-color-blue" : 0.0,
                      "default-stroke-color-green" : 0.0,
                      "default-translation0" : 0.0,
                      "default-translation1" : 0.0
                    },
                    "animationTracks" : {
                      "visual" : [
                        {
                          "endTime" : 31,
                          "duration" : 30,
                          "range" : [ 1, 30]
                        },
                        {
                          "endTime" : 294,
                          "duration" : 30,
                          "range" : [ 264, 30]
                        },
                        {
                          "endTime" : 560,
                          "duration" : 30,
                          "range" : [ 530, 30]
                        },
                        {
                          "endTime" : 834,
                          "duration" : 30,
                          "range" : [ 804, 30]
                        },
                        {
                          "endTime" : 984,
                          "duration" : 30,
                          "range" : [ 954, 30]
                        },
                        {
                          "endTime" : 1101,
                          "duration" : 30,
                          "range" : [ 1071, 30]
                        },
                        {
                          "endTime" : 1238,
                          "duration" : 30,
                          "range" : [ 1208, 30]
                        },
                        {
                          "endTime" : 1366,
                          "duration" : 30,
                          "range" : [ 1336, 30]
                        },
                        {
                          "endTime" : 1479,
                          "duration" : 30,
                          "range" : [ 1449, 30]
                        }
                      ]
                    }
                  }
                ],
                "transitions" : [
                  {
                    "name" : "Fade",
                    "duration" : 12,
                    "trivial" : false,
                    "reverse" : false,
                    "useAudioPreRoll" : true,
                    "useVisualPreRoll" : true,
                    "leftMedia" : 16
                  }
                ]
              },
              {
                "trackIndex" : 6,
                "medias" : [
                  {
                    "id" : 17,
                    "_type" : "Callout",
                    "def" : {
                      "kind" : "remix",
                      "shape" : "shape-rectangle",
                      "style" : "basic",
                      "fill-color-blue" : 0.0,
                      "fill-color-green" : 0.0,
                      "fill-color-opacity" : 0.0,
                      "fill-color-red" : 0.0,
                      "height" : 51.9000053409487,
                      "stroke-color-blue" : 0.172549019607843,
                      "stroke-color-green" : 0.192156862745098,
                      "stroke-color-opacity" : 1.0,
                      "stroke-color-red" : 0.717647058823529,
                      "stroke-width" : 6.0,
                      "width" : 89.9999967868535,
                      "fill-style" : "solid",
                      "stroke-style" : "solid"
                    },
                    "attributes" : {
                      "autoRotateText" : true
                    },
                    "parameters" : {
                      "translation0" : -175.533804718749,
                      "translation1" : -116.149997329534,
                      "geometryCrop2" : 1.69393388205208e-11
                    },
                    "effects" : [

                    ],
                    "start" : 308,
                    "duration" : 73,
                    "mediaStart" : 8,
                    "mediaDuration" : 73,
                    "scalar" : 1,
                    "metadata" : {
                      "clipSpeedAttribute" : false,
                      "default-stroke-color-blue" : 0.0,
                      "default-stroke-color-green" : 0.0,
                      "default-stroke-color-red" : 0.0,
                      "default-translation0" : 0.0,
                      "default-translation1" : 0.0
                    },
                    "animationTracks" : {

                    }
                  },
                  {
                    "id" : 18,
                    "_type" : "Callout",
                    "def" : {
                      "kind" : "remix",
                      "shape" : "shape-rectangle",
                      "style" : "basic",
                      "fill-color-blue" : {
                        "type" : "double",
                        "defaultValue" : 0.0,
                        "interp" : "linr"
                      },
                      "fill-color-green" : {
                        "type" : "double",
                        "defaultValue" : 0.0,
                        "interp" : "linr"
                      },
                      "fill-color-opacity" : {
                        "type" : "double",
                        "defaultValue" : 0.0,
                        "interp" : "linr"
                      },
                      "fill-color-red" : {
                        "type" : "double",
                        "defaultValue" : 0.0,
                        "interp" : "linr"
                      },
                      "height" : {
                        "type" : "double",
                        "defaultValue" : 51.9000053409487,
                        "interp" : "linr"
                      },
                      "stroke-color-blue" : {
                        "type" : "double",
                        "defaultValue" : 0.172549019607843,
                        "interp" : "linr"
                      },
                      "stroke-color-green" : {
                        "type" : "double",
                        "defaultValue" : 0.192156862745098,
                        "interp" : "linr"
                      },
                      "stroke-color-opacity" : {
                        "type" : "double",
                        "defaultValue" : 1.0,
                        "interp" : "linr"
                      },
                      "stroke-color-red" : {
                        "type" : "double",
                        "defaultValue" : 0.717647058823529,
                        "interp" : "linr"
                      },
                      "stroke-width" : {
                        "type" : "double",
                        "defaultValue" : 6.0,
                        "interp" : "linr"
                      },
                      "width" : {
                        "type" : "double",
                        "defaultValue" : 89.9999967868535,
                        "interp" : "linr"
                      },
                      "fill-style" : "solid",
                      "stroke-style" : "solid"
                    },
                    "attributes" : {
                      "autoRotateText" : true
                    },
                    "parameters" : {
                      "translation0" : {
                        "type" : "double",
                        "defaultValue" : -46.7338047187278,
                        "interp" : "eioe"
                      },
                      "translation1" : {
                        "type" : "double",
                        "defaultValue" : -116.149997329534,
                        "interp" : "eioe"
                      },
                      "geometryCrop2" : {
                        "type" : "double",
                        "defaultValue" : 1.69393388205208e-11,
                        "interp" : "linr"
                      }
                    },
                    "effects" : [

                    ],
                    "start" : 577,
                    "duration" : 73,
                    "mediaStart" : 8,
                    "mediaDuration" : 73,
                    "scalar" : 1,
                    "metadata" : {
                      "clipSpeedAttribute" : false,
                      "default-stroke-color-blue" : 0.0,
                      "default-stroke-color-green" : 0.0,
                      "default-stroke-color-red" : 0.0,
                      "default-translation0" : 0.0,
                      "default-translation1" : 0.0
                    },
                    "animationTracks" : {

                    }
                  },
                  {
                    "id" : 19,
                    "_type" : "Callout",
                    "def" : {
                      "kind" : "remix",
                      "shape" : "shape-rectangle",
                      "style" : "basic",
                      "fill-color-blue" : {
                        "type" : "double",
                        "defaultValue" : 0.0,
                        "interp" : "linr"
                      },
                      "fill-color-green" : {
                        "type" : "double",
                        "defaultValue" : 0.0,
                        "interp" : "linr"
                      },
                      "fill-color-opacity" : {
                        "type" : "double",
                        "defaultValue" : 0.0,
                        "interp" : "linr"
                      },
                      "fill-color-red" : {
                        "type" : "double",
                        "defaultValue" : 0.0,
                        "interp" : "linr"
                      },
                      "height" : {
                        "type" : "double",
                        "defaultValue" : 51.9000053409487,
                        "interp" : "linr"
                      },
                      "stroke-color-blue" : {
                        "type" : "double",
                        "defaultValue" : 0.172549019607843,
                        "interp" : "linr"
                      },
                      "stroke-color-green" : {
                        "type" : "double",
                        "defaultValue" : 0.192156862745098,
                        "interp" : "linr"
                      },
                      "stroke-color-opacity" : {
                        "type" : "double",
                        "defaultValue" : 1.0,
                        "interp" : "linr"
                      },
                      "stroke-color-red" : {
                        "type" : "double",
                        "defaultValue" : 0.717647058823529,
                        "interp" : "linr"
                      },
                      "stroke-width" : {
                        "type" : "double",
                        "defaultValue" : 6.0,
                        "interp" : "linr"
                      },
                      "width" : {
                        "type" : "double",
                        "defaultValue" : 76.3999967869315,
                        "interp" : "linr"
                      },
                      "fill-style" : "solid",
                      "stroke-style" : "solid"
                    },
                    "attributes" : {
                      "autoRotateText" : true
                    },
                    "parameters" : {
                      "translation0" : {
                        "type" : "double",
                        "defaultValue" : 68.0661952811686,
                        "interp" : "eioe"
                      },
                      "translation1" : {
                        "type" : "double",
                        "defaultValue" : -116.149997329534,
                        "interp" : "eioe"
                      },
                      "geometryCrop2" : {
                        "type" : "double",
                        "defaultValue" : 1.69393388205208e-11,
                        "interp" : "linr"
                      }
                    },
                    "effects" : [

                    ],
                    "start" : 843,
                    "duration" : 73,
                    "mediaStart" : 8,
                    "mediaDuration" : 73,
                    "scalar" : 1,
                    "metadata" : {
                      "clipSpeedAttribute" : false,
                      "default-stroke-color-blue" : 0.0,
                      "default-stroke-color-green" : 0.0,
                      "default-stroke-color-red" : 0.0,
                      "default-translation0" : 0.0,
                      "default-translation1" : 0.0
                    },
                    "animationTracks" : {

                    }
                  },
                  {
                    "id" : 20,
                    "_type" : "Callout",
                    "def" : {
                      "kind" : "remix",
                      "shape" : "shape-rectangle",
                      "style" : "basic",
                      "fill-color-blue" : {
                        "type" : "double",
                        "defaultValue" : 0.0,
                        "interp" : "linr"
                      },
                      "fill-color-green" : {
                        "type" : "double",
                        "defaultValue" : 0.0,
                        "interp" : "linr"
                      },
                      "fill-color-opacity" : {
                        "type" : "double",
                        "defaultValue" : 0.0,
                        "interp" : "linr"
                      },
                      "fill-color-red" : {
                        "type" : "double",
                        "defaultValue" : 0.0,
                        "interp" : "linr"
                      },
                      "height" : {
                        "type" : "double",
                        "defaultValue" : 51.9000053409487,
                        "interp" : "linr"
                      },
                      "stroke-color-blue" : {
                        "type" : "double",
                        "defaultValue" : 0.172549019607843,
                        "interp" : "linr"
                      },
                      "stroke-color-green" : {
                        "type" : "double",
                        "defaultValue" : 0.192156862745098,
                        "interp" : "linr"
                      },
                      "stroke-color-opacity" : {
                        "type" : "double",
                        "defaultValue" : 1.0,
                        "interp" : "linr"
                      },
                      "stroke-color-red" : {
                        "type" : "double",
                        "defaultValue" : 0.717647058823529,
                        "interp" : "linr"
                      },
                      "stroke-width" : {
                        "type" : "double",
                        "defaultValue" : 6.0,
                        "interp" : "linr"
                      },
                      "width" : {
                        "type" : "double",
                        "defaultValue" : 85.9999967869433,
                        "interp" : "linr"
                      },
                      "fill-style" : "solid",
                      "stroke-style" : "solid"
                    },
                    "attributes" : {
                      "autoRotateText" : true
                    },
                    "parameters" : {
                      "translation0" : {
                        "type" : "double",
                        "defaultValue" : -175.93380471883,
                        "interp" : "eioe"
                      },
                      "translation1" : {
                        "type" : "double",
                        "defaultValue" : -178.549997329544,
                        "interp" : "eioe"
                      },
                      "geometryCrop2" : {
                        "type" : "double",
                        "defaultValue" : 1.69393388205208e-11,
                        "interp" : "linr"
                      }
                    },
                    "effects" : [

                    ],
                    "start" : 981,
                    "duration" : 73,
                    "mediaStart" : 8,
                    "mediaDuration" : 73,
                    "scalar" : 1,
                    "metadata" : {
                      "clipSpeedAttribute" : false,
                      "default-stroke-color-blue" : 0.0,
                      "default-stroke-color-green" : 0.0,
                      "default-stroke-color-red" : 0.0,
                      "default-translation0" : 0.0,
                      "default-translation1" : 0.0
                    },
                    "animationTracks" : {

                    }
                  },
                  {
                    "id" : 21,
                    "_type" : "Callout",
                    "def" : {
                      "kind" : "remix",
                      "shape" : "shape-rectangle",
                      "style" : "basic",
                      "fill-color-blue" : {
                        "type" : "double",
                        "defaultValue" : 0.0,
                        "interp" : "linr"
                      },
                      "fill-color-green" : {
                        "type" : "double",
                        "defaultValue" : 0.0,
                        "interp" : "linr"
                      },
                      "fill-color-opacity" : {
                        "type" : "double",
                        "defaultValue" : 0.0,
                        "interp" : "linr"
                      },
                      "fill-color-red" : {
                        "type" : "double",
                        "defaultValue" : 0.0,
                        "interp" : "linr"
                      },
                      "height" : {
                        "type" : "double",
                        "defaultValue" : 51.9000053409487,
                        "interp" : "linr"
                      },
                      "stroke-color-blue" : {
                        "type" : "double",
                        "defaultValue" : 0.172549019607843,
                        "interp" : "linr"
                      },
                      "stroke-color-green" : {
                        "type" : "double",
                        "defaultValue" : 0.192156862745098,
                        "interp" : "linr"
                      },
                      "stroke-color-opacity" : {
                        "type" : "double",
                        "defaultValue" : 1.0,
                        "interp" : "linr"
                      },
                      "stroke-color-red" : {
                        "type" : "double",
                        "defaultValue" : 0.717647058823529,
                        "interp" : "linr"
                      },
                      "stroke-width" : {
                        "type" : "double",
                        "defaultValue" : 6.0,
                        "interp" : "linr"
                      },
                      "width" : {
                        "type" : "double",
                        "defaultValue" : 85.9999967869433,
                        "interp" : "linr"
                      },
                      "fill-style" : "solid",
                      "stroke-style" : "solid"
                    },
                    "attributes" : {
                      "autoRotateText" : true
                    },
                    "parameters" : {
                      "translation0" : {
                        "type" : "double",
                        "defaultValue" : -47.1338047188305,
                        "interp" : "eioe"
                      },
                      "translation1" : {
                        "type" : "double",
                        "defaultValue" : -178.549997329544,
                        "interp" : "eioe"
                      },
                      "geometryCrop2" : {
                        "type" : "double",
                        "defaultValue" : 1.69393388205208e-11,
                        "interp" : "linr"
                      }
                    },
                    "effects" : [

                    ],
                    "start" : 1102,
                    "duration" : 73,
                    "mediaStart" : 8,
                    "mediaDuration" : 73,
                    "scalar" : 1,
                    "metadata" : {
                      "clipSpeedAttribute" : false,
                      "default-stroke-color-blue" : 0.0,
                      "default-stroke-color-green" : 0.0,
                      "default-stroke-color-red" : 0.0,
                      "default-translation0" : 0.0,
                      "default-translation1" : 0.0
                    },
                    "animationTracks" : {

                    }
                  },
                  {
                    "id" : 22,
                    "_type" : "Callout",
                    "def" : {
                      "kind" : "remix",
                      "shape" : "shape-rectangle",
                      "style" : "basic",
                      "fill-color-blue" : {
                        "type" : "double",
                        "defaultValue" : 0.0,
                        "interp" : "linr"
                      },
                      "fill-color-green" : {
                        "type" : "double",
                        "defaultValue" : 0.0,
                        "interp" : "linr"
                      },
                      "fill-color-opacity" : {
                        "type" : "double",
                        "defaultValue" : 0.0,
                        "interp" : "linr"
                      },
                      "fill-color-red" : {
                        "type" : "double",
                        "defaultValue" : 0.0,
                        "interp" : "linr"
                      },
                      "height" : {
                        "type" : "double",
                        "defaultValue" : 51.9000053409487,
                        "interp" : "linr"
                      },
                      "stroke-color-blue" : {
                        "type" : "double",
                        "defaultValue" : 0.172549019607843,
                        "interp" : "linr"
                      },
                      "stroke-color-green" : {
                        "type" : "double",
                        "defaultValue" : 0.192156862745098,
                        "interp" : "linr"
                      },
                      "stroke-color-opacity" : {
                        "type" : "double",
                        "defaultValue" : 1.0,
                        "interp" : "linr"
                      },
                      "stroke-color-red" : {
                        "type" : "double",
                        "defaultValue" : 0.717647058823529,
                        "interp" : "linr"
                      },
                      "stroke-width" : {
                        "type" : "double",
                        "defaultValue" : 6.0,
                        "interp" : "linr"
                      },
                      "width" : {
                        "type" : "double",
                        "defaultValue" : 81.1999967869145,
                        "interp" : "linr"
                      },
                      "fill-style" : "solid",
                      "stroke-style" : "solid"
                    },
                    "attributes" : {
                      "autoRotateText" : true
                    },
                    "parameters" : {
                      "translation0" : {
                        "type" : "double",
                        "defaultValue" : 68.0661952811762,
                        "interp" : "eioe"
                      },
                      "translation1" : {
                        "type" : "double",
                        "defaultValue" : -178.549997329544,
                        "interp" : "eioe"
                      },
                      "geometryCrop2" : {
                        "type" : "double",
                        "defaultValue" : 1.69393388205208e-11,
                        "interp" : "linr"
                      }
                    },
                    "effects" : [

                    ],
                    "start" : 1236,
                    "duration" : 73,
                    "mediaStart" : 8,
                    "mediaDuration" : 73,
                    "scalar" : 1,
                    "metadata" : {
                      "clipSpeedAttribute" : false,
                      "default-stroke-color-blue" : 0.0,
                      "default-stroke-color-green" : 0.0,
                      "default-stroke-color-red" : 0.0,
                      "default-translation0" : 0.0,
                      "default-translation1" : 0.0
                    },
                    "animationTracks" : {

                    }
                  },
                  {
                    "id" : 23,
                    "_type" : "Callout",
                    "def" : {
                      "kind" : "remix",
                      "shape" : "shape-rectangle",
                      "style" : "basic",
                      "fill-color-blue" : {
                        "type" : "double",
                        "defaultValue" : 0.0,
                        "interp" : "linr"
                      },
                      "fill-color-green" : {
                        "type" : "double",
                        "defaultValue" : 0.0,
                        "interp" : "linr"
                      },
                      "fill-color-opacity" : {
                        "type" : "double",
                        "defaultValue" : 0.0,
                        "interp" : "linr"
                      },
                      "fill-color-red" : {
                        "type" : "double",
                        "defaultValue" : 0.0,
                        "interp" : "linr"
                      },
                      "height" : {
                        "type" : "double",
                        "defaultValue" : 51.9000053409487,
                        "interp" : "linr"
                      },
                      "stroke-color-blue" : {
                        "type" : "double",
                        "defaultValue" : 0.172549019607843,
                        "interp" : "linr"
                      },
                      "stroke-color-green" : {
                        "type" : "double",
                        "defaultValue" : 0.192156862745098,
                        "interp" : "linr"
                      },
                      "stroke-color-opacity" : {
                        "type" : "double",
                        "defaultValue" : 1.0,
                        "interp" : "linr"
                      },
                      "stroke-color-red" : {
                        "type" : "double",
                        "defaultValue" : 0.717647058823529,
                        "interp" : "linr"
                      },
                      "stroke-width" : {
                        "type" : "double",
                        "defaultValue" : 6.0,
                        "interp" : "linr"
                      },
                      "width" : {
                        "type" : "double",
                        "defaultValue" : 81.1999967869145,
                        "interp" : "linr"
                      },
                      "fill-style" : "solid",
                      "stroke-style" : "solid"
                    },
                    "attributes" : {
                      "autoRotateText" : true
                    },
                    "parameters" : {
                      "translation0" : {
                        "type" : "double",
                        "defaultValue" : -177.199992329164,
                        "interp" : "eioe"
                      },
                      "translation1" : {
                        "type" : "double",
                        "defaultValue" : -242.226763629549,
                        "interp" : "eioe"
                      },
                      "geometryCrop2" : {
                        "type" : "double",
                        "defaultValue" : 1.69393388205208e-11,
                        "interp" : "linr"
                      }
                    },
                    "effects" : [

                    ],
                    "start" : 1368,
                    "duration" : 73,
                    "mediaStart" : 8,
                    "mediaDuration" : 73,
                    "scalar" : 1,
                    "metadata" : {
                      "clipSpeedAttribute" : false,
                      "default-stroke-color-blue" : 0.0,
                      "default-stroke-color-green" : 0.0,
                      "default-stroke-color-red" : 0.0,
                      "default-translation0" : 0.0,
                      "default-translation1" : 0.0
                    },
                    "animationTracks" : {

                    }
                  },
                  {
                    "id" : 24,
                    "_type" : "Callout",
                    "def" : {
                      "kind" : "remix",
                      "shape" : "shape-rectangle",
                      "style" : "basic",
                      "fill-color-blue" : {
                        "type" : "double",
                        "defaultValue" : 0.0,
                        "interp" : "linr"
                      },
                      "fill-color-green" : {
                        "type" : "double",
                        "defaultValue" : 0.0,
                        "interp" : "linr"
                      },
                      "fill-color-opacity" : {
                        "type" : "double",
                        "defaultValue" : 0.0,
                        "interp" : "linr"
                      },
                      "fill-color-red" : {
                        "type" : "double",
                        "defaultValue" : 0.0,
                        "interp" : "linr"
                      },
                      "height" : {
                        "type" : "double",
                        "defaultValue" : 51.9000053409487,
                        "interp" : "linr"
                      },
                      "stroke-color-blue" : {
                        "type" : "double",
                        "defaultValue" : 0.172549019607843,
                        "interp" : "linr"
                      },
                      "stroke-color-green" : {
                        "type" : "double",
                        "defaultValue" : 0.192156862745098,
                        "interp" : "linr"
                      },
                      "stroke-color-opacity" : {
                        "type" : "double",
                        "defaultValue" : 1.0,
                        "interp" : "linr"
                      },
                      "stroke-color-red" : {
                        "type" : "double",
                        "defaultValue" : 0.717647058823529,
                        "interp" : "linr"
                      },
                      "stroke-width" : {
                        "type" : "double",
                        "defaultValue" : 6.0,
                        "interp" : "linr"
                      },
                      "width" : {
                        "type" : "double",
                        "defaultValue" : 81.1999967869145,
                        "interp" : "linr"
                      },
                      "fill-style" : "solid",
                      "stroke-style" : "solid"
                    },
                    "attributes" : {
                      "autoRotateText" : true
                    },
                    "parameters" : {
                      "translation0" : {
                        "type" : "double",
                        "defaultValue" : -47.5999923291532,
                        "interp" : "eioe"
                      },
                      "translation1" : {
                        "type" : "double",
                        "defaultValue" : -242.226763629549,
                        "interp" : "eioe"
                      },
                      "geometryCrop2" : {
                        "type" : "double",
                        "defaultValue" : 1.69393388205208e-11,
                        "interp" : "linr"
                      }
                    },
                    "effects" : [

                    ],
                    "start" : 1482,
                    "duration" : 73,
                    "mediaStart" : 8,
                    "mediaDuration" : 73,
                    "scalar" : 1,
                    "metadata" : {
                      "clipSpeedAttribute" : false,
                      "default-stroke-color-blue" : 0.0,
                      "default-stroke-color-green" : 0.0,
                      "default-stroke-color-red" : 0.0,
                      "default-translation0" : 0.0,
                      "default-translation1" : 0.0
                    },
                    "animationTracks" : {

                    }
                  },
                  {
                    "id" : 25,
                    "_type" : "Callout",
                    "def" : {
                      "kind" : "remix",
                      "shape" : "shape-rectangle",
                      "style" : "basic",
                      "fill-color-blue" : {
                        "type" : "double",
                        "defaultValue" : 0.0,
                        "interp" : "linr"
                      },
                      "fill-color-green" : {
                        "type" : "double",
                        "defaultValue" : 0.0,
                        "interp" : "linr"
                      },
                      "fill-color-opacity" : {
                        "type" : "double",
                        "defaultValue" : 0.0,
                        "interp" : "linr"
                      },
                      "fill-color-red" : {
                        "type" : "double",
                        "defaultValue" : 0.0,
                        "interp" : "linr"
                      },
                      "height" : {
                        "type" : "double",
                        "defaultValue" : 51.9000053409487,
                        "interp" : "linr"
                      },
                      "stroke-color-blue" : {
                        "type" : "double",
                        "defaultValue" : 0.172549019607843,
                        "interp" : "linr"
                      },
                      "stroke-color-green" : {
                        "type" : "double",
                        "defaultValue" : 0.192156862745098,
                        "interp" : "linr"
                      },
                      "stroke-color-opacity" : {
                        "type" : "double",
                        "defaultValue" : 1.0,
                        "interp" : "linr"
                      },
                      "stroke-color-red" : {
                        "type" : "double",
                        "defaultValue" : 0.717647058823529,
                        "interp" : "linr"
                      },
                      "stroke-width" : {
                        "type" : "double",
                        "defaultValue" : 6.0,
                        "interp" : "linr"
                      },
                      "width" : {
                        "type" : "double",
                        "defaultValue" : 81.1999967869145,
                        "interp" : "linr"
                      },
                      "fill-style" : "solid",
                      "stroke-style" : "solid"
                    },
                    "attributes" : {
                      "autoRotateText" : true
                    },
                    "parameters" : {
                      "translation0" : {
                        "type" : "double",
                        "defaultValue" : 68.4000076708625,
                        "interp" : "eioe"
                      },
                      "translation1" : {
                        "type" : "double",
                        "defaultValue" : -242.226763629549,
                        "interp" : "eioe"
                      },
                      "geometryCrop2" : {
                        "type" : "double",
                        "defaultValue" : 1.69393388205208e-11,
                        "interp" : "linr"
                      }
                    },
                    "effects" : [

                    ],
                    "start" : 1595,
                    "duration" : 73,
                    "mediaStart" : 8,
                    "mediaDuration" : 73,
                    "scalar" : 1,
                    "metadata" : {
                      "clipSpeedAttribute" : false,
                      "default-stroke-color-blue" : 0.0,
                      "default-stroke-color-green" : 0.0,
                      "default-stroke-color-red" : 0.0,
                      "default-translation0" : 0.0,
                      "default-translation1" : 0.0
                    },
                    "animationTracks" : {

                    }
                  }
                ],
                "transitions" : [
                  {
                    "name" : "Fade",
                    "duration" : 30,
                    "trivial" : false,
                    "reverse" : false,
                    "useAudioPreRoll" : true,
                    "useVisualPreRoll" : true,
                    "rightMedia" : 17
                  },
                  {
                    "name" : "Fade",
                    "duration" : 12,
                    "trivial" : false,
                    "reverse" : false,
                    "useAudioPreRoll" : true,
                    "useVisualPreRoll" : true,
                    "leftMedia" : 17
                  },
                  {
                    "name" : "Fade",
                    "duration" : 30,
                    "trivial" : false,
                    "reverse" : false,
                    "useAudioPreRoll" : true,
                    "useVisualPreRoll" : true,
                    "rightMedia" : 18
                  },
                  {
                    "name" : "Fade",
                    "duration" : 12,
                    "trivial" : false,
                    "reverse" : false,
                    "useAudioPreRoll" : true,
                    "useVisualPreRoll" : true,
                    "leftMedia" : 18
                  },
                  {
                    "name" : "Fade",
                    "duration" : 30,
                    "trivial" : false,
                    "reverse" : false,
                    "useAudioPreRoll" : true,
                    "useVisualPreRoll" : true,
                    "rightMedia" : 19
                  },
                  {
                    "name" : "Fade",
                    "duration" : 12,
                    "trivial" : false,
                    "reverse" : false,
                    "useAudioPreRoll" : true,
                    "useVisualPreRoll" : true,
                    "leftMedia" : 19
                  },
                  {
                    "name" : "Fade",
                    "duration" : 30,
                    "trivial" : false,
                    "reverse" : false,
                    "useAudioPreRoll" : true,
                    "useVisualPreRoll" : true,
                    "rightMedia" : 20
                  },
                  {
                    "name" : "Fade",
                    "duration" : 12,
                    "trivial" : false,
                    "reverse" : false,
                    "useAudioPreRoll" : true,
                    "useVisualPreRoll" : true,
                    "leftMedia" : 20
                  },
                  {
                    "name" : "Fade",
                    "duration" : 30,
                    "trivial" : false,
                    "reverse" : false,
                    "useAudioPreRoll" : true,
                    "useVisualPreRoll" : true,
                    "rightMedia" : 21
                  },
                  {
                    "name" : "Fade",
                    "duration" : 12,
                    "trivial" : false,
                    "reverse" : false,
                    "useAudioPreRoll" : true,
                    "useVisualPreRoll" : true,
                    "leftMedia" : 21
                  },
                  {
                    "name" : "Fade",
                    "duration" : 30,
                    "trivial" : false,
                    "reverse" : false,
                    "useAudioPreRoll" : true,
                    "useVisualPreRoll" : true,
                    "rightMedia" : 22
                  },
                  {
                    "name" : "Fade",
                    "duration" : 12,
                    "trivial" : false,
                    "reverse" : false,
                    "useAudioPreRoll" : true,
                    "useVisualPreRoll" : true,
                    "leftMedia" : 22
                  },
                  {
                    "name" : "Fade",
                    "duration" : 30,
                    "trivial" : false,
                    "reverse" : false,
                    "useAudioPreRoll" : true,
                    "useVisualPreRoll" : true,
                    "rightMedia" : 23
                  },
                  {
                    "name" : "Fade",
                    "duration" : 12,
                    "trivial" : false,
                    "reverse" : false,
                    "useAudioPreRoll" : true,
                    "useVisualPreRoll" : true,
                    "leftMedia" : 23
                  },
                  {
                    "name" : "Fade",
                    "duration" : 30,
                    "trivial" : false,
                    "reverse" : false,
                    "useAudioPreRoll" : true,
                    "useVisualPreRoll" : true,
                    "rightMedia" : 24
                  },
                  {
                    "name" : "Fade",
                    "duration" : 12,
                    "trivial" : false,
                    "reverse" : false,
                    "useAudioPreRoll" : true,
                    "useVisualPreRoll" : true,
                    "leftMedia" : 24
                  },
                  {
                    "name" : "Fade",
                    "duration" : 30,
                    "trivial" : false,
                    "reverse" : false,
                    "useAudioPreRoll" : true,
                    "useVisualPreRoll" : true,
                    "rightMedia" : 25
                  },
                  {
                    "name" : "Fade",
                    "duration" : 12,
                    "trivial" : false,
                    "reverse" : false,
                    "useAudioPreRoll" : true,
                    "useVisualPreRoll" : true,
                    "leftMedia" : 25
                  }
                ]
              },
              {
                "trackIndex" : 7,
                "medias" : [
                  {
                    "id" : 26,
                    "_type" : "Callout",
                    "def" : {
                      "kind" : "remix",
                      "shape" : "text",
                      "style" : "basic",
                      "height" : 250.0,
                      "line-spacing" : 0.0,
                      "width" : 815.200000000073,
                      "word-wrap" : 1.0,
                      "horizontal-alignment" : "center",
                      "resize-behavior" : "resizeText",
                      "text" : "3·5 + 9·9 + 3·6 + 3·8 = 138",
                      "vertical-alignment" : "center",
                      "font" : {
                        "color-blue" : 1.0,
                        "color-green" : 1.0,
                        "color-red" : 1.0,
                        "size" : 96.0,
                        "tracking" : 0.0,
                        "name" : "Montserrat",
                        "weight" : "Regular"
                      },
                      "textAttributes" : {
                        "type" : "textAttributeList",
                        "keyframes" : [
                          {
                            "endTime" : 0,
                            "time" : 0,
                            "value" : [{"name":"kerning","rangeEnd":31,"rangeStart":0,"value":0,"valueType":"double"},{"name":"fgColor","rangeEnd":15,"rangeStart":14,"value":"(215,136,37,255)","valueType":"color"},{"name":"fgColor","rangeEnd":14,"rangeStart":11,"value":"(0,0,0,255)","valueType":"color"},{"name":"fgColor","rangeEnd":3,"rangeStart":1,"value":"(0,0,0,255)","valueType":"color"},{"name":"fgColor","rangeEnd":28,"rangeStart":25,"value":"(0,0,0,255)","valueType":"color"},{"name":"fgColor","rangeEnd":17,"rangeStart":15,"value":"(0,0,0,255)","valueType":"color"},{"name":"fgColor","rangeEnd":24,"rangeStart":22,"value":"(0,0,0,255)","valueType":"color"},{"name":"fgColor","rangeEnd":21,"rangeStart":18,"value":"(0,0,0,255)","valueType":"color"},{"name":"strikethrough","rangeEnd":31,"rangeStart":0,"value":0,"valueType":"int"},{"name":"fgColor","rangeEnd":25,"rangeStart":24,"value":"(0,113,170,255)","valueType":"color"},{"name":"fgColor","rangeEnd":10,"rangeStart":8,"value":"(0,0,0,255)","valueType":"color"},{"name":"fontItalic","rangeEnd":31,"rangeStart":0,"value":0,"valueType":"int"},{"name":"fontWeight","rangeEnd":31,"rangeStart":0,"value":400,"valueType":"int"},{"name":"fgColor","rangeEnd":7,"rangeStart":4,"value":"(0,0,0,255)","valueType":"color"},{"name":"underline","rangeEnd":31,"rangeStart":0,"value":0,"valueType":"int"},{"name":"fgColor","rangeEnd":1,"rangeStart":0,"value":"(215,136,37,255)","valueType":"color"},{"name":"fgColor","rangeEnd":31,"rangeStart":28,"value":"(183,49,44,255)","valueType":"color"},{"name":"fgColor","rangeEnd":4,"rangeStart":3,"value":"(0,113,170,255)","valueType":"color"},{"name":"fgColor","rangeEnd":18,"rangeStart":17,"value":"(0,113,170,255)","valueType":"color"},{"name":"fontName","rangeEnd":31,"rangeStart":0,"value":"cmr10","valueType":"string"},{"name":"fgColor","rangeEnd":11,"rangeStart":10,"value":"(0,113,170,255)","valueType":"color"},{"name":"fgColor","rangeEnd":22,"rangeStart":21,"value":"(215,136,37,255)","valueType":"color"},{"name":"fgColor","rangeEnd":8,"rangeStart":7,"value":"(215,136,37,255)","valueType":"color"},{"name":"fontSize","rangeEnd":31,"rangeStart":0,"value":50,"valueType":"double"}],
                            "duration" : 0
                          }
                        ]
                      }
                    },
                    "attributes" : {
                      "autoRotateText" : true
                    },
                    "parameters" : {
                      "translation0" : -17.6337877729624,
                      "translation1" : 271.699999999973
                    },
                    "effects" : [
                        {
                          "_type" : "GenericBehaviorEffect",
                          "effectName" : "reveal",
                          "start" : 0,
                          "duration" : 194                        ,
                          "in" : {
                            "attributes" : {
                              "name" : "fadeIn",
                              "type" : 1,
                              "characterOrder" : 6,
                              "offsetBetweenCharacters" : 9,
                              "suggestedDurationPerCharacter" : 0,
                              "overlapProportion" : 0,
                              "movement" : 0,
                              "springDamping" : 5.0,
                              "springStiffness" : 50.0,
                              "bounceBounciness" : 0.45
                            }
                          
                          },
                          "center" : {
                            "attributes" : {
                              "name" : "none",
                              "type" : 1,
                              "characterOrder" : 6,
                              "offsetBetweenCharacters" : 0,
                              "secondsPerLoop" : 1,
                              "numberOfLoops" : -1,
                              "delayBetweenLoops" : 0,
                              "offsetBetweenCharacters" : 0
                            }
                          
                          },
                          "out" : {
                            "attributes" : {
                              "name" : "none",
                              "type" : 1,
                              "characterOrder" : 6,
                              "offsetBetweenCharacters" : 0,
                              "suggestedDurationPerCharacter" : 0,
                              "overlapProportion" : 0,
                              "movement" : -1,
                              "springDamping" : 5.0,
                              "springStiffness" : 50.0,
                              "bounceBounciness" : 0.45
                            }
                          
                          },
                          "metadata" : {
                            "default-behavior-center-style" : "reveal",
                            "default-behavior-in-characterorder" : 7.0,
                            "default-behavior-in-duration" : 22.0,
                            "default-behavior-in-offset" : 1.5,
                            "default-behavior-in-style" : "reveal",
                            "default-behavior-out-style" : "reveal"
                          }
                        }
                    ],
                    "start" : 154,
                    "duration" : 194,
                    "mediaStart" : 0,
                    "mediaDuration" : 194,
                    "scalar" : 1,
                    "metadata" : {
                      "clipSpeedAttribute" : false,
                      "default-HAlign" : "center",
                      "default-LineSpace" : 0.0,
                      "default-VAlign" : "center",
                      "default-text-attributes" : "[{\"name\":\"fontItalic\",\"rangeEnd\":30,\"rangeStart\":0,\"value\":0,\"valueType\":\"int\"},{\"name\":\"kerning\",\"rangeEnd\":30,\"rangeStart\":0,\"value\":0,\"valueType\":\"double\"},{\"name\":\"fgColor\",\"rangeEnd\":30,\"rangeStart\":0,\"value\":\"(0,0,0,255)\",\"valueType\":\"color\"},{\"name\":\"underline\",\"rangeEnd\":30,\"rangeStart\":0,\"value\":0,\"valueType\":\"int\"},{\"name\":\"fontName\",\"rangeEnd\":30,\"rangeStart\":0,\"value\":\"cmr10\",\"valueType\":\"string\"},{\"name\":\"fontWeight\",\"rangeEnd\":30,\"rangeStart\":0,\"value\":400,\"valueType\":\"int\"},{\"name\":\"strikethrough\",\"rangeEnd\":30,\"rangeStart\":0,\"value\":0,\"valueType\":\"int\"},{\"name\":\"fontSize\",\"rangeEnd\":30,\"rangeStart\":0,\"value\":50,\"valueType\":\"double\"}]",
                      "default-translation0" : 0.0,
                      "default-translation1" : 0.0
                    },
                    "animationTracks" : {

                    }
                  },
                  {
                    "id" : 27,
                    "_type" : "Callout",
                    "def" : {
                      "kind" : "remix",
                      "shape" : "text",
                      "style" : "basic",
                      "height" : {
                        "type" : "double",
                        "defaultValue" : 250.0,
                        "interp" : "linr"
                      },
                      "line-spacing" : {
                        "type" : "double",
                        "defaultValue" : 0.0,
                        "interp" : "linr"
                      },
                      "width" : {
                        "type" : "double",
                        "defaultValue" : 815.200000000073,
                        "interp" : "linr"
                      },
                      "word-wrap" : {
                        "type" : "double",
                        "defaultValue" : 1.0,
                        "interp" : "linr"
                      },
                      "horizontal-alignment" : "center",
                      "resize-behavior" : "resizeText",
                      "text" : "3·4 + 9·8 + 3·8 + 3·1 = 111",
                      "vertical-alignment" : "center",
                      "font" : {
                        "color-blue" : {
                          "type" : "double",
                          "defaultValue" : 1.0,
                          "interp" : "linr"
                        },
                        "color-green" : {
                          "type" : "double",
                          "defaultValue" : 1.0,
                          "interp" : "linr"
                        },
                        "color-red" : {
                          "type" : "double",
                          "defaultValue" : 1.0,
                          "interp" : "linr"
                        },
                        "size" : {
                          "type" : "double",
                          "defaultValue" : 96.0,
                          "interp" : "linr"
                        },
                        "tracking" : {
                          "type" : "double",
                          "defaultValue" : 0.0,
                          "interp" : "linr"
                        },
                        "name" : "Montserrat",
                        "weight" : "Regular"
                      },
                      "textAttributes" : {
                        "type" : "textAttributeList",
                        "keyframes" : [
                          {
                            "endTime" : 0,
                            "time" : 0,
                            "value" : [{"name":"fgColor","rangeEnd":17,"rangeStart":15,"value":"(0,0,0,255)","valueType":"color"},{"name":"fgColor","rangeEnd":25,"rangeStart":24,"value":"(0,113,170,255)","valueType":"color"},{"name":"fgColor","rangeEnd":31,"rangeStart":28,"value":"(183,49,44,255)","valueType":"color"},{"name":"fgColor","rangeEnd":8,"rangeStart":7,"value":"(215,136,37,255)","valueType":"color"},{"name":"fgColor","rangeEnd":14,"rangeStart":11,"value":"(0,0,0,255)","valueType":"color"},{"name":"fgColor","rangeEnd":15,"rangeStart":14,"value":"(215,136,37,255)","valueType":"color"},{"name":"fgColor","rangeEnd":3,"rangeStart":1,"value":"(0,0,0,255)","valueType":"color"},{"name":"underline","rangeEnd":31,"rangeStart":0,"value":0,"valueType":"int"},{"name":"fontSize","rangeEnd":31,"rangeStart":0,"value":50,"valueType":"double"},{"name":"fgColor","rangeEnd":21,"rangeStart":18,"value":"(0,0,0,255)","valueType":"color"},{"name":"fgColor","rangeEnd":1,"rangeStart":0,"value":"(215,136,37,255)","valueType":"color"},{"name":"fontName","rangeEnd":31,"rangeStart":0,"value":"cmr10","valueType":"string"},{"name":"kerning","rangeEnd":31,"rangeStart":0,"value":0,"valueType":"double"},{"name":"fgColor","rangeEnd":22,"rangeStart":21,"value":"(215,136,37,255)","valueType":"color"},{"name":"fgColor","rangeEnd":18,"rangeStart":17,"value":"(0,113,170,255)","valueType":"color"},{"name":"fontItalic","rangeEnd":31,"rangeStart":0,"value":0,"valueType":"int"},{"name":"fgColor","rangeEnd":28,"rangeStart":25,"value":"(0,0,0,255)","valueType":"color"},{"name":"fgColor","rangeEnd":10,"rangeStart":8,"value":"(0,0,0,255)","valueType":"color"},{"name":"fgColor","rangeEnd":11,"rangeStart":10,"value":"(0,113,170,255)","valueType":"color"},{"name":"fgColor","rangeEnd":7,"rangeStart":4,"value":"(0,0,0,255)","valueType":"color"},{"name":"fgColor","rangeEnd":24,"rangeStart":22,"value":"(0,0,0,255)","valueType":"color"},{"name":"fontWeight","rangeEnd":31,"rangeStart":0,"value":400,"valueType":"int"},{"name":"strikethrough","rangeEnd":31,"rangeStart":0,"value":0,"valueType":"int"},{"name":"fgColor","rangeEnd":4,"rangeStart":3,"value":"(0,113,170,255)","valueType":"color"}],
                            "duration" : 0
                          }
                        ]
                      }
                    },
                    "attributes" : {
                      "autoRotateText" : true
                    },
                    "parameters" : {
                      "translation0" : {
                        "type" : "double",
                        "defaultValue" : -17.6337877729624,
                        "interp" : "eioe"
                      },
                      "translation1" : {
                        "type" : "double",
                        "defaultValue" : 271.699999999973,
                        "interp" : "eioe"
                      }
                    },
                    "effects" : [
                        {
                          "_type" : "GenericBehaviorEffect",
                          "effectName" : "reveal",
                          "start" : 0,
                          "duration" : 194                        ,
                          "in" : {
                            "attributes" : {
                              "name" : "fadeIn",
                              "type" : 1,
                              "characterOrder" : 6,
                              "offsetBetweenCharacters" : 9,
                              "suggestedDurationPerCharacter" : 0,
                              "overlapProportion" : 0,
                              "movement" : 0,
                              "springDamping" : 5.0,
                              "springStiffness" : 50.0,
                              "bounceBounciness" : 0.45
                            }
                          
                          },
                          "center" : {
                            "attributes" : {
                              "name" : "none",
                              "type" : 1,
                              "characterOrder" : 6,
                              "offsetBetweenCharacters" : 0,
                              "secondsPerLoop" : 1,
                              "numberOfLoops" : -1,
                              "delayBetweenLoops" : 0,
                              "offsetBetweenCharacters" : 0
                            }
                          
                          },
                          "out" : {
                            "attributes" : {
                              "name" : "none",
                              "type" : 1,
                              "characterOrder" : 6,
                              "offsetBetweenCharacters" : 0,
                              "suggestedDurationPerCharacter" : 0,
                              "overlapProportion" : 0,
                              "movement" : -1,
                              "springDamping" : 5.0,
                              "springStiffness" : 50.0,
                              "bounceBounciness" : 0.45
                            }
                          
                          },
                          "metadata" : {
                            "default-behavior-center-style" : "reveal",
                            "default-behavior-in-characterorder" : 7.0,
                            "default-behavior-in-duration" : 22.0,
                            "default-behavior-in-offset" : 1.5,
                            "default-behavior-in-style" : "reveal",
                            "default-behavior-out-style" : "reveal"
                          }
                        }
                    ],
                    "start" : 421,
                    "duration" : 194,
                    "mediaStart" : 0,
                    "mediaDuration" : 194,
                    "scalar" : 1,
                    "metadata" : {
                      "clipSpeedAttribute" : false,
                      "default-HAlign" : "center",
                      "default-LineSpace" : 0.0,
                      "default-VAlign" : "center",
                      "default-text-attributes" : "[{\"name\":\"fontItalic\",\"rangeEnd\":30,\"rangeStart\":0,\"value\":0,\"valueType\":\"int\"},{\"name\":\"kerning\",\"rangeEnd\":30,\"rangeStart\":0,\"value\":0,\"valueType\":\"double\"},{\"name\":\"fgColor\",\"rangeEnd\":30,\"rangeStart\":0,\"value\":\"(0,0,0,255)\",\"valueType\":\"color\"},{\"name\":\"underline\",\"rangeEnd\":30,\"rangeStart\":0,\"value\":0,\"valueType\":\"int\"},{\"name\":\"fontName\",\"rangeEnd\":30,\"rangeStart\":0,\"value\":\"cmr10\",\"valueType\":\"string\"},{\"name\":\"fontWeight\",\"rangeEnd\":30,\"rangeStart\":0,\"value\":400,\"valueType\":\"int\"},{\"name\":\"strikethrough\",\"rangeEnd\":30,\"rangeStart\":0,\"value\":0,\"valueType\":\"int\"},{\"name\":\"fontSize\",\"rangeEnd\":30,\"rangeStart\":0,\"value\":50,\"valueType\":\"double\"}]",
                      "default-translation0" : 0.0,
                      "default-translation1" : 0.0
                    },
                    "animationTracks" : {

                    }
                  },
                  {
                    "id" : 28,
                    "_type" : "Callout",
                    "def" : {
                      "kind" : "remix",
                      "shape" : "text",
                      "style" : "basic",
                      "height" : {
                        "type" : "double",
                        "defaultValue" : 250.0,
                        "interp" : "linr"
                      },
                      "line-spacing" : {
                        "type" : "double",
                        "defaultValue" : 0.0,
                        "interp" : "linr"
                      },
                      "width" : {
                        "type" : "double",
                        "defaultValue" : 815.200000000073,
                        "interp" : "linr"
                      },
                      "word-wrap" : {
                        "type" : "double",
                        "defaultValue" : 1.0,
                        "interp" : "linr"
                      },
                      "horizontal-alignment" : "center",
                      "resize-behavior" : "resizeText",
                      "text" : "3·4 + 9·1 + 3·9 + 3·2 = 54",
                      "vertical-alignment" : "center",
                      "font" : {
                        "color-blue" : {
                          "type" : "double",
                          "defaultValue" : 1.0,
                          "interp" : "linr"
                        },
                        "color-green" : {
                          "type" : "double",
                          "defaultValue" : 1.0,
                          "interp" : "linr"
                        },
                        "color-red" : {
                          "type" : "double",
                          "defaultValue" : 1.0,
                          "interp" : "linr"
                        },
                        "size" : {
                          "type" : "double",
                          "defaultValue" : 96.0,
                          "interp" : "linr"
                        },
                        "tracking" : {
                          "type" : "double",
                          "defaultValue" : 0.0,
                          "interp" : "linr"
                        },
                        "name" : "Montserrat",
                        "weight" : "Regular"
                      },
                      "textAttributes" : {
                        "type" : "textAttributeList",
                        "keyframes" : [
                          {
                            "endTime" : 0,
                            "time" : 0,
                            "value" : [{"name":"fgColor","rangeEnd":25,"rangeStart":24,"value":"(0,113,170,255)","valueType":"color"},{"name":"fgColor","rangeEnd":28,"rangeStart":25,"value":"(0,0,0,255)","valueType":"color"},{"name":"fgColor","rangeEnd":30,"rangeStart":28,"value":"(183,49,44,255)","valueType":"color"},{"name":"fgColor","rangeEnd":10,"rangeStart":8,"value":"(0,0,0,255)","valueType":"color"},{"name":"fontSize","rangeEnd":30,"rangeStart":0,"value":50,"valueType":"double"},{"name":"fgColor","rangeEnd":18,"rangeStart":17,"value":"(0,113,170,255)","valueType":"color"},{"name":"fontName","rangeEnd":30,"rangeStart":0,"value":"cmr10","valueType":"string"},{"name":"fontItalic","rangeEnd":30,"rangeStart":0,"value":0,"valueType":"int"},{"name":"fontWeight","rangeEnd":30,"rangeStart":0,"value":400,"valueType":"int"},{"name":"strikethrough","rangeEnd":30,"rangeStart":0,"value":0,"valueType":"int"},{"name":"underline","rangeEnd":30,"rangeStart":0,"value":0,"valueType":"int"},{"name":"kerning","rangeEnd":30,"rangeStart":0,"value":0,"valueType":"double"},{"name":"fgColor","rangeEnd":1,"rangeStart":0,"value":"(215,136,37,255)","valueType":"color"},{"name":"fgColor","rangeEnd":3,"rangeStart":1,"value":"(0,0,0,255)","valueType":"color"},{"name":"fgColor","rangeEnd":4,"rangeStart":3,"value":"(0,113,170,255)","valueType":"color"},{"name":"fgColor","rangeEnd":7,"rangeStart":4,"value":"(0,0,0,255)","valueType":"color"},{"name":"fgColor","rangeEnd":8,"rangeStart":7,"value":"(215,136,37,255)","valueType":"color"},{"name":"fgColor","rangeEnd":11,"rangeStart":10,"value":"(0,113,170,255)","valueType":"color"},{"name":"fgColor","rangeEnd":14,"rangeStart":11,"value":"(0,0,0,255)","valueType":"color"},{"name":"fgColor","rangeEnd":15,"rangeStart":14,"value":"(215,136,37,255)","valueType":"color"},{"name":"fgColor","rangeEnd":17,"rangeStart":15,"value":"(0,0,0,255)","valueType":"color"},{"name":"fgColor","rangeEnd":21,"rangeStart":18,"value":"(0,0,0,255)","valueType":"color"},{"name":"fgColor","rangeEnd":22,"rangeStart":21,"value":"(215,136,37,255)","valueType":"color"},{"name":"fgColor","rangeEnd":24,"rangeStart":22,"value":"(0,0,0,255)","valueType":"color"}],
                            "duration" : 0
                          }
                        ]
                      }
                    },
                    "attributes" : {
                      "autoRotateText" : true
                    },
                    "parameters" : {
                      "translation0" : {
                        "type" : "double",
                        "defaultValue" : -17.6337877729624,
                        "interp" : "eioe"
                      },
                      "translation1" : {
                        "type" : "double",
                        "defaultValue" : 271.699999999973,
                        "interp" : "eioe"
                      }
                    },
                    "effects" : [
                        {
                          "_type" : "GenericBehaviorEffect",
                          "effectName" : "reveal",
                          "start" : 0,
                          "duration" : 194                        ,
                          "in" : {
                            "attributes" : {
                              "name" : "fadeIn",
                              "type" : 1,
                              "characterOrder" : 6,
                              "offsetBetweenCharacters" : 9,
                              "suggestedDurationPerCharacter" : 0,
                              "overlapProportion" : 0,
                              "movement" : 0,
                              "springDamping" : 5.0,
                              "springStiffness" : 50.0,
                              "bounceBounciness" : 0.45
                            }
                          
                          },
                          "center" : {
                            "attributes" : {
                              "name" : "none",
                              "type" : 1,
                              "characterOrder" : 6,
                              "offsetBetweenCharacters" : 0,
                              "secondsPerLoop" : 1,
                              "numberOfLoops" : -1,
                              "delayBetweenLoops" : 0,
                              "offsetBetweenCharacters" : 0
                            }
                          
                          },
                          "out" : {
                            "attributes" : {
                              "name" : "none",
                              "type" : 1,
                              "characterOrder" : 6,
                              "offsetBetweenCharacters" : 0,
                              "suggestedDurationPerCharacter" : 0,
                              "overlapProportion" : 0,
                              "movement" : -1,
                              "springDamping" : 5.0,
                              "springStiffness" : 50.0,
                              "bounceBounciness" : 0.45
                            }
                          
                          },
                          "metadata" : {
                            "default-behavior-center-style" : "reveal",
                            "default-behavior-in-characterorder" : 7.0,
                            "default-behavior-in-duration" : 22.0,
                            "default-behavior-in-offset" : 1.5,
                            "default-behavior-in-style" : "reveal",
                            "default-behavior-out-style" : "reveal"
                          }
                        }
                    ],
                    "start" : 684,
                    "duration" : 194,
                    "mediaStart" : 0,
                    "mediaDuration" : 194,
                    "scalar" : 1,
                    "metadata" : {
                      "clipSpeedAttribute" : false,
                      "default-HAlign" : "center",
                      "default-LineSpace" : 0.0,
                      "default-VAlign" : "center",
                      "default-text-attributes" : "[{\"name\":\"fontItalic\",\"rangeEnd\":30,\"rangeStart\":0,\"value\":0,\"valueType\":\"int\"},{\"name\":\"kerning\",\"rangeEnd\":30,\"rangeStart\":0,\"value\":0,\"valueType\":\"double\"},{\"name\":\"fgColor\",\"rangeEnd\":30,\"rangeStart\":0,\"value\":\"(0,0,0,255)\",\"valueType\":\"color\"},{\"name\":\"underline\",\"rangeEnd\":30,\"rangeStart\":0,\"value\":0,\"valueType\":\"int\"},{\"name\":\"fontName\",\"rangeEnd\":30,\"rangeStart\":0,\"value\":\"cmr10\",\"valueType\":\"string\"},{\"name\":\"fontWeight\",\"rangeEnd\":30,\"rangeStart\":0,\"value\":400,\"valueType\":\"int\"},{\"name\":\"strikethrough\",\"rangeEnd\":30,\"rangeStart\":0,\"value\":0,\"valueType\":\"int\"},{\"name\":\"fontSize\",\"rangeEnd\":30,\"rangeStart\":0,\"value\":50,\"valueType\":\"double\"}]",
                      "default-translation0" : 0.0,
                      "default-translation1" : 0.0
                    },
                    "animationTracks" : {

                    }
                  }
                ],
                "transitions" : [
                  {
                    "name" : "Fade",
                    "duration" : 20,
                    "trivial" : false,
                    "reverse" : false,
                    "useAudioPreRoll" : true,
                    "useVisualPreRoll" : true,
                    "leftMedia" : 26
                  },
                  {
                    "name" : "Fade",
                    "duration" : 20,
                    "trivial" : false,
                    "reverse" : false,
                    "useAudioPreRoll" : true,
                    "useVisualPreRoll" : true,
                    "leftMedia" : 27
                  },
                  {
                    "name" : "Fade",
                    "duration" : 20,
                    "trivial" : false,
                    "reverse" : false,
                    "useAudioPreRoll" : true,
                    "useVisualPreRoll" : true,
                    "leftMedia" : 28
                  }
                ]
              },
              {
                "trackIndex" : 8,
                "medias" : [
                  {
                    "id" : 29,
                    "_type" : "Callout",
                    "def" : {
                      "kind" : "remix",
                      "shape" : "text",
                      "style" : "basic",
                      "height" : 74.9999999999976,
                      "line-spacing" : 0.0,
                      "width" : 138.133787772896,
                      "word-wrap" : 1.0,
                      "horizontal-alignment" : "center",
                      "resize-behavior" : "resizeText",
                      "text" : "3x4",
                      "vertical-alignment" : "center",
                      "font" : {
                        "color-blue" : 1.0,
                        "color-green" : 1.0,
                        "color-red" : 1.0,
                        "size" : 96.0,
                        "tracking" : 0.0,
                        "name" : "Montserrat",
                        "weight" : "Regular"
                      },
                      "textAttributes" : {
                        "type" : "textAttributeList",
                        "keyframes" : [
                          {
                            "endTime" : 0,
                            "time" : 0,
                            "value" : [{"name":"strikethrough","rangeEnd":3,"rangeStart":0,"value":0,"valueType":"int"},{"name":"fgColor","rangeEnd":3,"rangeStart":0,"value":"(199,0,0,255)","valueType":"color"},{"name":"fontName","rangeEnd":3,"rangeStart":0,"value":"cmr10","valueType":"string"},{"name":"fontWeight","rangeEnd":3,"rangeStart":0,"value":400,"valueType":"int"},{"name":"fontSize","rangeEnd":3,"rangeStart":0,"value":41,"valueType":"double"},{"name":"underline","rangeEnd":3,"rangeStart":0,"value":0,"valueType":"int"},{"name":"fontItalic","rangeEnd":3,"rangeStart":0,"value":0,"valueType":"int"},{"name":"kerning","rangeEnd":3,"rangeStart":0,"value":0,"valueType":"double"}],
                            "duration" : 0
                          }
                        ]
                      }
                    },
                    "attributes" : {
                      "autoRotateText" : true
                    },
                    "parameters" : {
                      "translation0" : -84.4006816593942,
                      "translation1" : 196.500000000138
                    },
                    "effects" : [

                    ],
                    "start" : 0,
                    "duration" : 76,
                    "mediaStart" : 0,
                    "mediaDuration" : 76,
                    "scalar" : 1,
                    "metadata" : {
                      "clipSpeedAttribute" : false,
                      "default-HAlign" : "center",
                      "default-LineSpace" : 0.0,
                      "default-VAlign" : "center",
                      "default-text-attributes" : "[{\"name\":\"fontWeight\",\"rangeEnd\":3,\"rangeStart\":0,\"value\":400,\"valueType\":\"int\"},{\"name\":\"kerning\",\"rangeEnd\":3,\"rangeStart\":0,\"value\":0,\"valueType\":\"double\"},{\"name\":\"fontSize\",\"rangeEnd\":3,\"rangeStart\":0,\"value\":41,\"valueType\":\"double\"},{\"name\":\"fontName\",\"rangeEnd\":3,\"rangeStart\":0,\"value\":\"cmr10\",\"valueType\":\"string\"},{\"name\":\"fgColor\",\"rangeEnd\":3,\"rangeStart\":0,\"value\":\"(0,0,0,255)\",\"valueType\":\"color\"},{\"name\":\"fontItalic\",\"rangeEnd\":3,\"rangeStart\":0,\"value\":0,\"valueType\":\"int\"},{\"name\":\"strikethrough\",\"rangeEnd\":3,\"rangeStart\":0,\"value\":0,\"valueType\":\"int\"},{\"name\":\"underline\",\"rangeEnd\":3,\"rangeStart\":0,\"value\":0,\"valueType\":\"int\"}]",
                      "default-translation0" : 0.0,
                      "default-translation1" : 0.0
                    },
                    "animationTracks" : {

                    }
                  }
                ],
                "transitions" : [
                  {
                    "name" : "Fade",
                    "duration" : 20,
                    "trivial" : false,
                    "reverse" : false,
                    "useAudioPreRoll" : true,
                    "useVisualPreRoll" : true,
                    "rightMedia" : 29
                  },
                  {
                    "name" : "Fade",
                    "duration" : 19,
                    "trivial" : false,
                    "reverse" : false,
                    "useAudioPreRoll" : true,
                    "useVisualPreRoll" : true,
                    "leftMedia" : 29
                  }
                ]
              },
              {
                "trackIndex" : 9,
                "medias" : [
                  {
                    "id" : 30,
                    "_type" : "Callout",
                    "def" : {
                      "kind" : "remix",
                      "shape" : "text",
                      "style" : "basic",
                      "height" : 112.000000000079,
                      "line-spacing" : 0.0,
                      "width" : 178.000000000015,
                      "word-wrap" : 1.0,
                      "horizontal-alignment" : "center",
                      "resize-behavior" : "resizeText",
                      "text" : "4x3",
                      "vertical-alignment" : "center",
                      "font" : {
                        "color-blue" : 1.0,
                        "color-green" : 1.0,
                        "color-red" : 1.0,
                        "size" : 96.0,
                        "tracking" : 0.0,
                        "name" : "Montserrat",
                        "weight" : "Regular"
                      },
                      "textAttributes" : {
                        "type" : "textAttributeList",
                        "keyframes" : [
                          {
                            "endTime" : 0,
                            "time" : 0,
                            "value" : [{"name":"kerning","rangeEnd":3,"rangeStart":0,"value":0,"valueType":"double"},{"name":"fontSize","rangeEnd":3,"rangeStart":0,"value":41,"valueType":"double"},{"name":"fontName","rangeEnd":3,"rangeStart":0,"value":"cmr10","valueType":"string"},{"name":"fgColor","rangeEnd":3,"rangeStart":0,"value":"(199,0,0,255)","valueType":"color"},{"name":"strikethrough","rangeEnd":3,"rangeStart":0,"value":0,"valueType":"int"},{"name":"fontItalic","rangeEnd":3,"rangeStart":0,"value":0,"valueType":"int"},{"name":"underline","rangeEnd":3,"rangeStart":0,"value":0,"valueType":"int"},{"name":"fontWeight","rangeEnd":3,"rangeStart":0,"value":400,"valueType":"int"}],
                            "duration" : 0
                          }
                        ]
                      }
                    },
                    "attributes" : {
                      "autoRotateText" : true
                    },
                    "parameters" : {
                      "translation0" : 283.666212226775,
                      "translation1" : 224.399999999937
                    },
                    "effects" : [

                    ],
                    "start" : 0,
                    "duration" : 76,
                    "mediaStart" : 0,
                    "mediaDuration" : 76,
                    "scalar" : 1,
                    "metadata" : {
                      "clipSpeedAttribute" : false,
                      "default-HAlign" : "center",
                      "default-LineSpace" : 0.0,
                      "default-VAlign" : "center",
                      "default-text-attributes" : "[{\"name\":\"strikethrough\",\"rangeEnd\":3,\"rangeStart\":0,\"value\":0,\"valueType\":\"int\"},{\"name\":\"underline\",\"rangeEnd\":3,\"rangeStart\":0,\"value\":0,\"valueType\":\"int\"},{\"name\":\"fontItalic\",\"rangeEnd\":3,\"rangeStart\":0,\"value\":0,\"valueType\":\"int\"},{\"name\":\"fontWeight\",\"rangeEnd\":3,\"rangeStart\":0,\"value\":400,\"valueType\":\"int\"},{\"name\":\"fgColor\",\"rangeEnd\":3,\"rangeStart\":0,\"value\":\"(0,0,0,255)\",\"valueType\":\"color\"},{\"name\":\"fontSize\",\"rangeEnd\":3,\"rangeStart\":0,\"value\":41,\"valueType\":\"double\"},{\"name\":\"kerning\",\"rangeEnd\":3,\"rangeStart\":0,\"value\":0,\"valueType\":\"double\"},{\"name\":\"fontName\",\"rangeEnd\":3,\"rangeStart\":0,\"value\":\"cmr10\",\"valueType\":\"string\"}]",
                      "default-translation0" : 0.0,
                      "default-translation1" : 0.0
                    },
                    "animationTracks" : {

                    }
                  }
                ],
                "transitions" : [
                  {
                    "name" : "Fade",
                    "duration" : 20,
                    "trivial" : false,
                    "reverse" : false,
                    "useAudioPreRoll" : true,
                    "useVisualPreRoll" : true,
                    "rightMedia" : 30
                  },
                  {
                    "name" : "Fade",
                    "duration" : 19,
                    "trivial" : false,
                    "reverse" : false,
                    "useAudioPreRoll" : true,
                    "useVisualPreRoll" : true,
                    "leftMedia" : 30
                  }
                ]
              },
              {
                "trackIndex" : 10,
                "medias" : [
                  {
                    "id" : 31,
                    "_type" : "Callout",
                    "def" : {
                      "kind" : "remix",
                      "shape" : "text",
                      "style" : "basic",
                      "height" : 74.9999999999976,
                      "line-spacing" : 0.0,
                      "width" : 138.133787772896,
                      "word-wrap" : 1.0,
                      "horizontal-alignment" : "center",
                      "resize-behavior" : "resizeText",
                      "text" : "3x3",
                      "vertical-alignment" : "center",
                      "font" : {
                        "color-blue" : 1.0,
                        "color-green" : 1.0,
                        "color-red" : 1.0,
                        "size" : 96.0,
                        "tracking" : 0.0,
                        "name" : "Montserrat",
                        "weight" : "Regular"
                      },
                      "textAttributes" : {
                        "type" : "textAttributeList",
                        "keyframes" : [
                          {
                            "endTime" : 0,
                            "time" : 0,
                            "value" : [{"name":"underline","rangeEnd":3,"rangeStart":0,"value":0,"valueType":"int"},{"name":"fontName","rangeEnd":3,"rangeStart":0,"value":"cmr10","valueType":"string"},{"name":"fontItalic","rangeEnd":3,"rangeStart":0,"value":0,"valueType":"int"},{"name":"fontWeight","rangeEnd":3,"rangeStart":0,"value":400,"valueType":"int"},{"name":"strikethrough","rangeEnd":3,"rangeStart":0,"value":0,"valueType":"int"},{"name":"fontSize","rangeEnd":3,"rangeStart":0,"value":41,"valueType":"double"},{"name":"fgColor","rangeEnd":3,"rangeStart":0,"value":"(199,0,0,255)","valueType":"color"},{"name":"kerning","rangeEnd":3,"rangeStart":0,"value":0,"valueType":"double"}],
                            "duration" : 0
                          }
                        ]
                      }
                    },
                    "attributes" : {
                      "autoRotateText" : true
                    },
                    "parameters" : {
                      "translation0" : -75.0387248722482,
                      "translation1" : -284.999999999742
                    },
                    "effects" : [

                    ],
                    "start" : 0,
                    "duration" : 76,
                    "mediaStart" : 0,
                    "mediaDuration" : 76,
                    "scalar" : 1,
                    "metadata" : {
                      "clipSpeedAttribute" : false,
                      "default-HAlign" : "center",
                      "default-LineSpace" : 0.0,
                      "default-VAlign" : "center",
                      "default-text-attributes" : "[{\"name\":\"underline\",\"rangeEnd\":3,\"rangeStart\":0,\"value\":0,\"valueType\":\"int\"},{\"name\":\"fontName\",\"rangeEnd\":3,\"rangeStart\":0,\"value\":\"cmr10\",\"valueType\":\"string\"},{\"name\":\"fontSize\",\"rangeEnd\":3,\"rangeStart\":0,\"value\":41,\"valueType\":\"double\"},{\"name\":\"strikethrough\",\"rangeEnd\":3,\"rangeStart\":0,\"value\":0,\"valueType\":\"int\"},{\"name\":\"fontWeight\",\"rangeEnd\":3,\"rangeStart\":0,\"value\":400,\"valueType\":\"int\"},{\"name\":\"fontItalic\",\"rangeEnd\":3,\"rangeStart\":0,\"value\":0,\"valueType\":\"int\"},{\"name\":\"fgColor\",\"rangeEnd\":3,\"rangeStart\":0,\"value\":\"(0,0,0,255)\",\"valueType\":\"color\"},{\"name\":\"kerning\",\"rangeEnd\":3,\"rangeStart\":0,\"value\":0,\"valueType\":\"double\"}]",
                      "default-translation0" : 0.0,
                      "default-translation1" : 0.0
                    },
                    "animationTracks" : {

                    }
                  }
                ],
                "transitions" : [
                  {
                    "name" : "Fade",
                    "duration" : 20,
                    "trivial" : false,
                    "reverse" : false,
                    "useAudioPreRoll" : true,
                    "useVisualPreRoll" : true,
                    "rightMedia" : 31
                  },
                  {
                    "name" : "Fade",
                    "duration" : 19,
                    "trivial" : false,
                    "reverse" : false,
                    "useAudioPreRoll" : true,
                    "useVisualPreRoll" : true,
                    "leftMedia" : 31
                  }
                ]
              },
              {
                "trackIndex" : 11,
                "medias" : [
                ]
              }
            ]
          }
        }
      ]
    },
    "trackAttributes" : [
      {
        "ident" : "",
        "audioMuted" : false,
        "videoHidden" : false,
        "magnetic" : false,
        "metadata" : {
          "IsLocked" : "False",
          "WinTrackHeight" : "56"
        }
      },
      {
        "ident" : "",
        "audioMuted" : false,
        "videoHidden" : false,
        "magnetic" : false,
        "metadata" : {
          "IsLocked" : "False",
          "WinTrackHeight" : "56"
        }
      },
      {
        "ident" : "",
        "audioMuted" : false,
        "videoHidden" : false,
        "magnetic" : false,
        "metadata" : {
          "IsLocked" : "False",
          "WinTrackHeight" : "56"
        }
      },
      {
        "ident" : "",
        "audioMuted" : false,
        "videoHidden" : false,
        "magnetic" : false,
        "metadata" : {
          "IsLocked" : "False",
          "WinTrackHeight" : "56"
        }
      },
      {
        "ident" : "",
        "audioMuted" : false,
        "videoHidden" : false,
        "magnetic" : false,
        "metadata" : {
          "IsLocked" : "False",
          "WinTrackHeight" : "56"
        }
      },
      {
        "ident" : "",
        "audioMuted" : false,
        "videoHidden" : false,
        "magnetic" : false,
        "metadata" : {
          "IsLocked" : "False",
          "WinTrackHeight" : "56"
        }
      },
      {
        "ident" : "",
        "audioMuted" : false,
        "videoHidden" : false,
        "magnetic" : false,
        "metadata" : {
          "IsLocked" : "False",
          "WinTrackHeight" : "56"
        }
      },
      {
        "ident" : "",
        "audioMuted" : false,
        "videoHidden" : false,
        "magnetic" : false,
        "metadata" : {
          "IsLocked" : "False",
          "WinTrackHeight" : "56"
        }
      },
      {
        "ident" : "",
        "audioMuted" : false,
        "videoHidden" : false,
        "magnetic" : false,
        "metadata" : {
          "IsLocked" : "False",
          "WinTrackHeight" : "56"
        }
      },
      {
        "ident" : "",
        "audioMuted" : false,
        "videoHidden" : false,
        "magnetic" : false,
        "metadata" : {
          "IsLocked" : "False",
          "WinTrackHeight" : "56"
        }
      },
      {
        "ident" : "",
        "audioMuted" : false,
        "videoHidden" : false,
        "magnetic" : false,
        "metadata" : {
          "IsLocked" : "False",
          "WinTrackHeight" : "56"
        }
      },
      {
        "ident" : "",
        "audioMuted" : false,
        "videoHidden" : false,
        "magnetic" : false,
        "metadata" : {
          "IsLocked" : "False",
          "WinTrackHeight" : "56"
        }
      }
    ],
    "captionAttributes" : {
      "enabled" : true,
      "fontName" : "Arial",
      "fontSize" : 34,
      "backgroundColor" : [ 0, 0, 0, 191],
      "foregroundColor" : [ 255, 255, 255, 255],
      "lang" : "en",
      "alignment" : 0,
      "defaultFontSize" : true,
      "opacity" : 0.5,
      "backgroundEnabled" : true,
      "backgroundOnlyAroundText" : true
    },
    "backgroundColor" : [ 0, 0, 0, 255]
  },
  "metadata" : {
    "AutoSaveFile" : "C:\\Users\\Rocksmithed\\AppData\\Local\\TechSmith\\Camtasia Studio\\19.0\\Auto-Saves\\mtrx_vid2f4c85.autosave.tscproj",
    "CanvasZoom" : 125,
    "Date" : "2020-12-03 02:03:06 PM",
    "Fit" : 0,
    "IsAutoSave" : "0",
    "Language" : "ENU",
    "ProfileName" : "",
    "ProjectDimensionsChanged" : "1",
    "Title" : "mtrx_vid",
    "audioNarrationNotes" : "",
    "calloutStyle" : "Basic",
    "canvasDetached" : "False",
    "canvasPositionHeight" : "0",
    "canvasPositionLeft" : "0",
    "canvasPositionTop" : "0",
    "canvasPositionWidth" : "0"
  }
}
